<mxfile modified="2023-11-09T20:25:40.864Z" host="Electron" agent="Mozilla/5.0 (Windows NT 10.0; Win64; x64) AppleWebKit/537.36 (KHTML, like Gecko) draw.io/22.0.3 Chrome/114.0.5735.289 Electron/25.8.4 Safari/537.36" etag="DDVvFiFzAE8OsPAkjgd7" version="22.0.3" type="device">
  <diagram name="Diagrama" id="_a-jkC4Qvpggq6Ki4pBX">
    <mxGraphModel dx="1098" dy="1989" grid="1" gridSize="10" guides="1" tooltips="1" connect="1" arrows="1" fold="1" page="1" pageScale="1" pageWidth="827" pageHeight="1169" math="0" shadow="0">
      <root>
        <mxCell id="00Jyg5K4TKUmTONpTBTu-0" />
        <mxCell id="00Jyg5K4TKUmTONpTBTu-1" parent="00Jyg5K4TKUmTONpTBTu-0" />
        <mxCell id="javuMlVK5iwE_7is3Uzb-0" value="" style="rounded=0;whiteSpace=wrap;html=1;fillColor=#CFF3FC;strokeColor=#6c8ebf;" parent="00Jyg5K4TKUmTONpTBTu-1" vertex="1">
          <mxGeometry x="10" y="-785" width="727.25" height="280" as="geometry" />
        </mxCell>
        <mxCell id="TwaNV9ldxMqnKcr1kfX8-5" style="edgeStyle=orthogonalEdgeStyle;rounded=0;orthogonalLoop=1;jettySize=auto;html=1;exitX=1;exitY=0.25;exitDx=0;exitDy=0;strokeColor=#666666;" parent="00Jyg5K4TKUmTONpTBTu-1" source="00Jyg5K4TKUmTONpTBTu-69" target="00Jyg5K4TKUmTONpTBTu-76" edge="1">
          <mxGeometry relative="1" as="geometry" />
        </mxCell>
        <mxCell id="TwaNV9ldxMqnKcr1kfX8-9" style="edgeStyle=orthogonalEdgeStyle;rounded=0;orthogonalLoop=1;jettySize=auto;html=1;exitX=0.5;exitY=0;exitDx=0;exitDy=0;endArrow=none;endFill=0;strokeColor=#666666;" parent="00Jyg5K4TKUmTONpTBTu-1" source="00Jyg5K4TKUmTONpTBTu-69" target="TwaNV9ldxMqnKcr1kfX8-4" edge="1">
          <mxGeometry relative="1" as="geometry" />
        </mxCell>
        <mxCell id="00Jyg5K4TKUmTONpTBTu-69" value="" style="rounded=0;whiteSpace=wrap;html=1;fillColor=#f5f5f5;strokeColor=none;fontColor=#333333;" parent="00Jyg5K4TKUmTONpTBTu-1" vertex="1">
          <mxGeometry x="47.25" y="-1015.75" width="110" height="120" as="geometry" />
        </mxCell>
        <mxCell id="00Jyg5K4TKUmTONpTBTu-70" value="&lt;b&gt;Developer&lt;/b&gt;" style="aspect=fixed;html=1;perimeter=none;align=center;shadow=0;dashed=0;image;fontSize=12;image=img/lib/mscae/PersonWithFriend.svg;labelBackgroundColor=none;" parent="00Jyg5K4TKUmTONpTBTu-1" vertex="1">
          <mxGeometry x="77.25" y="-992" width="50" height="49.5" as="geometry" />
        </mxCell>
        <mxCell id="00Jyg5K4TKUmTONpTBTu-76" value="" style="rounded=0;whiteSpace=wrap;html=1;fillColor=#f5f5f5;strokeColor=none;fontColor=#333333;" parent="00Jyg5K4TKUmTONpTBTu-1" vertex="1">
          <mxGeometry x="427.25" y="-1036.5" width="390" height="101.5" as="geometry" />
        </mxCell>
        <mxCell id="00Jyg5K4TKUmTONpTBTu-75" value="" style="shape=image;aspect=fixed;image=data:image/png,iVBORw0KGgoAAAANSUhEUgAABNYAAADiAQMAAAC4H9hUAAAABGdBTUEAALGPC/xhBQAAAAFzUkdCAK7OHOkAAAAGUExURUdwTAB31QntTTsAAAABdFJOUwBA5thmAAAACXBIWXMAABYlAAAWJQFJUiTwAAALY0lEQVR42u3dTa7rthUAYBIKwElQbeAB3EKHHQTlxgpIQBeSpUTZiR4yyDAqOogGrFiLPCQPJVIyab/4BMgFEtzrZ0uf+Xf4J4mxP8nP94RtfyNs60fCtomwbSZsWwnbNGGboWwbCdsmwraFsG0lbNOEbYaybSRsmwnbFsK2lbBtI2wzlG0jYdtM2Ea1oqqHjWrUetCoVlSx24hWVGltE9ksJVpRO2db6GYpzYrqaCQrKmQpyYoqvY1gRR28baabpQS7l32wabpZSq+ichN/RrJZSq+iDsg2083SWFFHclkaKqqiYVPYZnxXcySXpVBROZEKK1LbBEk50stS270kM45OaXtF5VQa4UOW7hV1oGI7ZOmjovZkgteRZv5NJrAKU/ghYJNHk1ZkbOf0ImPjR9rMyNi6cwtCxibONYCMrT8HLDI2aU6dN6K2kZRNHXOUkG04d8fJ2DJRiqJtYbRsKCxsjJity/Q7qNjEKUcJ2jb2ERtHaVIMWdNnbMPF5JA053WFC9tw8TVLhfku2/RNWNjYczbTYNN3UWm8DgvT07a1vhGYblrX+dK2sudsvMmmb96wXsE39rxN19vMTU3crsLC9I1t801pv/j0yp61dW22lVWU9vTTrMa2Ndi2m2A+F9uX6ZvbzM2/L6XCuLLnbaLRNl0HzLUUFlidzbTY5uuAqd9h6xtt63XA3EqVuNY2Ntj0zTiqVIn/CNtWbkLGoXRMU2eTjTZTDEqLfdP0JttUY9sgLI6l5m20qTd/yiZKH4LWUhYauEqbarHxC9vq7O+x/VSzhulsxUwDVFdoYyptg/mxwVbKNL+huNDGNNiWapso2yZ31PfYZIOtlGk+KKl8+1dpM6ZvsJUyzQcl+TbbWm8bSrbN5+07bFuTrZBpCshvsXGziTfaBjiWKI03q2263iZLtsW3wa/bOqMvbWK0b5qPNp9pw5qdJOh83Oh8/Bi2Flt31Sm350YZeLCJQ+zy4YL7130BFLbRabT5jv4jWyabOdMj3xa+HxpHT2+DAqVsQg1WtO+jSGzy8YfXDPaXOtujIlzZbH4LNG7yNihQrpMZbCG5bAI+bL4nx93wp9rG7QfyNnsRlUTDg9QGY2Fn6zI2v9lefAOb9NsQtoPNbYTp3SkVdD62uD1mcDb/tWSLrd/LVNlmizLugiPbBKeco6072vyFAKrRxuzredsemjj+aGpTbggvId92G2roHjaf5EOLTV7b9m/d4XF8aHDsKzBSldDZ1dGmnM0nuWmzzYltS2z/2W09HscnNg4j1aLtK5yVN9uspmyTePIF2WZI0Q0u1+z3EJPafgFT12RTB5tObP+NtjVjE2HTjra2VYT67Gy/QpKLRttkff4869n2+OyvZ9vgTqmLtr0Y/ga2/i22JbH97hJSh7CY2vbLNIX9T7tqFW0SbKs9pr2es9o2eFtXtLmDbxnb3lHi1rblbQ+KcBX58bqst40sDmYGX/rA9sgPbVsykbUp17eYyrbVrRHYitzV2kxi2xmJbWNfbBwKjcPBZjshk3tR7eFTp7bFjXrcGV6yWUZiW5lj8azNxni19zZKtolBcV0a+r37m/tYCY+2Jc4cZW02ps5O/qhWJ9voepcKmu4qGz/aWGqzFVhDuTzZ7AGl7y0MGRuMLF6xad9h2g626d7W39j6dtvmz84AmdhGn6oqY+NwbugtPPhH2wZfuMnWJTZ5ZZsKtn14W7Jp1zF8ybbFA6Y25u8JkbP5gQbYQvBKbV2rzSZZOJ9vr4INmtRb2+A6cyfbGmzLqzbbXp1ts/1/zubS5drG222+dQ0jX2zTyDZf2JTtaG4n2wI2Ca1Ula2Hreaon320qaJNgM21rRe2UcLrTbYxjutqbOvTNtNiW6Kt801osMXW49ombQddF21+GrjK5j4O/yBesC1FG3O2tdk2hZCVseEF09RmwkBrsXWiP/Tf5mgz1TZXmMDWQ+R81hbXcfeiIS5sAj7fYHMcsBxtQ95m9sgebau14X7vgmwdDNQqbejE6kXbwo5jQG/jMPVQZRtS23KwLU/aXH6WbX5Rs8m2hJD1gm0u2wZ3gHabqbBBqwU2137M7DjnEGzK1M/34p2ZMOnYapNXtt7NwzXZ1hCyXrBNDM+/zdgmXGWosXFsgwM/Z+sS2x5LwTZmbdxUz5MnNlFpY6lNXdnc3ow2mw4h60mbyNhGZPPrC97WV88jJbtkIFCfbVNmPUuEKUE/BFcu66ajjYfZ/rndBp3To01lbf3JNhi0VMSPNrf7oMm2hZD1pG0fS6DFzSHY5jizEmywALZU2URqW/K2OWvTqW0cTLoOeLB1zTYTQhbYzI1NWZtGNgjmiW2JNruPuMYGxb+DNYDpedtgex46Hn+EjmlYd/Yd1y5sfWi38Sqbsb0OZJugY4rW61ObbLaNYURztKXbR8DGT7afE5ub4PXLXGFIV7M3D5qNZNrU2viNrXNLH1s80M8wYNywbY1NurV1jTYRStJ8sK3ZPT9Tavvq1yLjUnhqE+6lBtsUxiFP2aRJeh12eQhsY9jaInG48XOMT9viHMoUjuFXG7wtvX8n2BQuofZNv8Cb/SB5zdu6sd42h/Sxr4kbm4GanbFB3VxZmIfCNmaetfmtJmGxwIeuxLadbG7rYozsj/f/7tfl475BCdPna5yygn0iz9lmNCGPbH20QbfuC7ZJ1ztw0bMbnW1meL/l7Avf3hz/PdrUaafMrW0Jv0vY2oBs+8d+QDYehsI2YZEt7lOd4CD2Tf9gYaVAnXbOFWxx98sSfrelREVb51IHrQN2fvTjWlplu2fRNvv9vTb1bCv9z1jf5bPXyyBbKNgSOvbIthdAfehVueGije/QdfSzWAY64G7NSdiNEGOod/3pCoJb29qhOz9MHbJxW4Tk0TYxSF2R2AbUsbFrdTbx1BLqnTjt4s/bUFolNjh5mD/zU7vYBruRtFux4YeLl32NgCOpzfXfWO4iqlubFle2uO8+uSZFhqMGm0w6+f7fVUwsfrq1RN7WIZsnQaLHfi9k08GmQ9kJm6ZG9BIEsN8S25QM1+9toa8kE9uGbCpnW1G3eUSzVwJNYvh9Dixr2562bcFmz66RTeZsM/oD2ziqKmDb/OnHZHoITTnlbALZfCF2R8e2PmcbEWQMzUlMlhE6J/h2Eul05M017GG6TCCbPfqKbCJjSyCJbcBV5Stkv0Kfkcd7cd3aTLTtR1+QrUv31eC/hpAeQ3pqDfuJoOgp9O3642XseVufte2/zcjG0v1IuHmSIT1UXLsO74Y9ZnEv2mHcCcW2ZIs59VOwSXc5TrQNyR4zXIz7kIbBhi6VhH2DY9iad7YF+Mkmszbhd8F5m0z2DeKQ06F5bI2maf2AZoabafenIyDcjY1jG/e7uWQcpKO9oEk/YjBo9BnT0n+nuQtTosHOX7qXznC8EGQofjJ3c3YTo83s90coFEGPd9OpsnXbabppKn6P8z75sMPbrg4CHX2FgcK9m2T+QhxF2Cb/sjXZesI2QdjWEbZxwjb2p7P9wTfyLdmygUHTsGUDw0rDlm18Fxq2bOM707AJAreQLNmyjS+ja9uI2Pjnm5CijX2+mpZtw8eradmWaXwnKjb5+bvQ1tgYFVv/8WpatolPR/oL26Px/d9nm5Cyjce7HX/qaQJF237tkfhoE3JhG+wlaR+spjc2+cFIf2VT4ZLbTz0tpWwLl3gTfMqMnWjuaT70Q/jbHRB8WEoXL2wn95CZzl+5RfBJVRz2ipB8cJBfVKL4MKhB4wHXQsqmNB44zKRsUuNO5kTKBg9h5xSfU9XjNWdiz/cSeLWV2HPROo2G+MSeJ8c1Gg7SakLCtrDyLR0/+PMvNDcyUrURfBz7DzHsk3tE4Jdj+CL0831s6qhVU/Zd/HVmf/1c//wf/dpunCRJrO8AAAAASUVORK5CYII=;" parent="00Jyg5K4TKUmTONpTBTu-1" vertex="1">
          <mxGeometry x="457.25" y="-1023" width="243.77" height="44.5" as="geometry" />
        </mxCell>
        <mxCell id="00Jyg5K4TKUmTONpTBTu-79" value="Azure DevOps Pipeline Queue" style="text;html=1;strokeColor=none;fillColor=none;align=center;verticalAlign=middle;whiteSpace=wrap;rounded=0;fontStyle=1" parent="00Jyg5K4TKUmTONpTBTu-1" vertex="1">
          <mxGeometry x="557.25" y="-981.75" width="184.38" height="20" as="geometry" />
        </mxCell>
        <mxCell id="TwaNV9ldxMqnKcr1kfX8-0" value="" style="group" parent="00Jyg5K4TKUmTONpTBTu-1" vertex="1" connectable="0">
          <mxGeometry x="217.25" y="-1160" width="110" height="120" as="geometry" />
        </mxCell>
        <mxCell id="00Jyg5K4TKUmTONpTBTu-73" value="" style="rounded=0;whiteSpace=wrap;html=1;fillColor=#f5f5f5;strokeColor=none;fontColor=#333333;" parent="TwaNV9ldxMqnKcr1kfX8-0" vertex="1">
          <mxGeometry width="110" height="120" as="geometry" />
        </mxCell>
        <mxCell id="00Jyg5K4TKUmTONpTBTu-67" value="" style="shape=image;aspect=fixed;image=data:image/png,iVBORw0KGgoAAAANSUhEUgAAAX8AAAF/CAMAAACWmjlVAAAAM1BMVEUAAAAAAAAAAAAAAAAAAAAAAAAAAAAAAAAAAAAAAAAAAAAAAAAAAAAAAAAAAAAAAAAAAACjBUbJAAAAEHRSTlMA8DAQ0KDAQGCA4CCQUHCw+BUOAQAACLtJREFUeAHs0YNhRQEAwMBv4+0/bW0zxWWE3Oi3tl8vNsN548VuPx19Y1rOx8PdjntXvqvVZnikzcqZ72iyGJ5otnTny1sPz7Tz52ubHodnm009+sr9s+GFZluXkv1XjSc+BfsBBPsBBPsBZPsBpPsBpPsBpPsBpPsBpPsBpPsBpPsBpPsBpPsBpPsBtPt7APt7APt7APt7APt7APt7APt7APt7APt7APt7APt7APt7APt7APt7APt7APt7APt7APt7APt7APt7AP8BAAAgAAAEAIAABAEAIAAABACAAAD4N38BpPtncwBNV28BpPsBpPsBpPsBpPsBpPsBpPsBpPsBpPsBpPsBpPsBpPsBpPsBpPsBpPsBpPsBpPsBpPsBpPsBpPsB1PsB9PsB9PsB9PsB9Ps/DnDC3n0gWYoDURR9QgaE+7n/1c6Eb28yWnGJRG8FXed28W2J1s7ee21lBvDx+wOkun1ps96fGcDB7wjws+WtAAHC8fsDSGsLEIDn9wfQWgIE4Pn9AdRngC/4gQDLHiAAz29W5+HdJL8/gGqgAH7+GQDlRwMUOADPzwbIOxqA56cDLAYG4Pn5ADcZgOfnAxQwAM/PB1gNDMDz8wEaGIDn5wOsBgSIyG92ybMGBAjJn7I824wLwPPzDwDZgAAB+e2Sbx8gQEB+y9xrMD4Az1/k3GJAgHD8dso7AwKE47cu7woQIBy/rfKuGReA5+f9TwMCROO3Rd51AwJE4zdx/nwAnt8y588H4PltBf39AXh+3v9jQIBo/LZxzz/5ADy/dXmXDAgQjd8+cu4wAwJE47ck5y7jAvD8/AuwakCAePx2y7fduAA8P/8BQDIuAM/PX4AWIEBEfquaAUB+s2MGIPmtagYA+c2WGYDkt6YZAOQ3u2cAkt9smQFIfkt5BgD5zcoMwPDPADz/DMDzm+1LgAA0/3wayvP7144IAXh+/84cIADP71+qOUAAnt+/VXED+Pl5/yVAAD8/79+2AAH8/Ly/RQjg5+f9IwTw8/P+EQL4+Xn/CAH8/Lx/hAB+ft4/QgA/P+8fIYCfn/ePEMDPz/tHCODn5/0jBPDz8/4RAvj5ef8IAfz8vH+EAH5+3j9CAD8/7x8hgJ+f948QwM/P+wcIkIsF8H9iAIAf8H9wAIAf8H9wAIAf8PcFKLVv6/+7+tmAAAP4AX9ngHau+mrruQMBcrGI/rbJsaUOCQDwo/7+ADrOEQEAftbfH0BHGxAA4If9/QG0pQEBAH7Y3x9gKQMCAPywvz9AbgMCAPyAvyMAcDtbgB/wf1gAgB/w9wcY7JOOEef08v6jAqSRf8vcLYz/qADrwBN1FovjPyzAOe5Y5RbIf1iAvI86UWezQP7jAmyjrkB7JP+BAfYx91VcLZK/IwD8C1Df55/k2phHgPQ+//qUp0BVuux9/stTbueZpP4+/yQ95wLU3uf/eczbcHZrf5//LT3lJUCVvc9/1XPeBHqjf37O/ZzTG/31HH97of8u8n5607+F8/dv+ifjNv3LgKSBr//F/vGaTuM2n/+cuozbfP6/KRu3+fr3kD6v8+9y7h5xY8vLqM33P+9Xfv6eHnM78/zG75+YXXJtGXRXxTI//2UuP4fjYT2Cf8qP+A7u6fhgP4S/3U/49GvPjtfVMfx3ObaP+yFyeZe/df7J/+04giKMf8r01b9KQADa3/8a7DOAHwjA+vu/g3sN4AcD8P5pAW+cVCU2AO9vJWN//1gdkcP5W8kcPx+A97eSOX4+AO9vJXP8fADe39JKPPQCAWh//wvhbsP4+QC8v5VVv9haRvLzAXh/s/bTAsfHBvPzAXh/s7bpB7uaAfxAANzfLNXt0BfLV00G8AMBUP8vt7fe73W9e2+7mQH8QADAH1qVuADTv0pcgOlfJS7A9K8SF2D6V4kLMP2rxAWY/lXiAkz/KnEBpn+VuADTv0pcgOlfJS7A9K8SF2D6V4kLMP2rxAWY/lXiAkz/KnEBpn+VuADTv0pcgOlfJS7A9K8SF2D6V4kLMP2rxAWY/lUKHWDv2eEP8IcMkLrk+MImwB8ywCfrV1t3nj9wgHTpN8snzR84QDkcd0wG+IMGaNn7L+T5+QDxv79dpcABmuNfCPBHDVAydlInz88HSAt3Wg/Pzwe4gKPKaX4+gP+8niMB/GEDpEN/uw7whw3QkfPyeH4+gP/Azg3gDxrglGcJ4I8Z4JBnHeAPGaDItQPgDxnglm8F4I8Y4JBvJ8AfMMAu51aAP2CAj7wD+AMG6PJuB/jjBbjkXQP44wVY5d0J8vMBeP8O8McLIMSf5+cD8P48Px9gAf15fj7A6vcH+fkAvH8D+OMF6PKugPx8AP7njcDPByhybgH4IwbI8u0G+CMG2OTbh+PnA/A/dA7CzwfI8mwD+fkA/AWoAPwxA+xybAX5+QD8L0AD+KMG2DP435/n5wN08rNfnp8PsIBvffL8fICSwasPz88HqOBfv1RpBujs/XpngO3p/DPA5OcfAw6AP1wA/wkcVxrHPwOky3H8D8AfNoC1Qz/fto/mnwGsHg59gD9sAGtb1rc7+m6T3xHAt09fv7C/zmI2+V0B/Ev/tUcXBw5AARBCiUzc+q927bTufyJQAm/x1OlfCgjQKyCA+8cDuF+AgADuHw/gfgECArh/PID7BQgI4P7xAO4XICCA+8cDuF+AgADuHw/gfgECArh/PID7BQjcKID7BQgIcKP7BQgIcKP7BQgIcKP7BQjFBAjFBAjFBAjFBAjFBAjFBAjFBAjFBAjFBAjFBAjFBAjFBAjFBAjFBAjFBAjFBAjFBAjFBAjFBAjFBAjFBAjFBAjfzLZz91ebza9ivwChmAChmAChmAChmAChmAChmAChmAChmAChmAChmAChmAChmAChmAChmAChmAChmAChmAChmAChmADhPxNgcfqwA/+brU/vt1ny39l0cXqn3YwB2fJNgWwZlE0zOT1rfpgxNAkOWTwizBe71ZYL7Q7H02m600+YOAAAAABJRU5ErkJggg==;" parent="TwaNV9ldxMqnKcr1kfX8-0" vertex="1">
          <mxGeometry x="18.5" y="23.5" width="73" height="73" as="geometry" />
        </mxCell>
        <mxCell id="00Jyg5K4TKUmTONpTBTu-74" value="&lt;b&gt;Git Repository&lt;/b&gt;" style="text;html=1;strokeColor=none;fillColor=none;align=center;verticalAlign=middle;whiteSpace=wrap;rounded=0;" parent="TwaNV9ldxMqnKcr1kfX8-0" vertex="1">
          <mxGeometry x="6" y="96.5" width="100" height="20" as="geometry" />
        </mxCell>
        <mxCell id="TwaNV9ldxMqnKcr1kfX8-1" value="" style="editableCssRules=.*;html=1;shape=image;verticalLabelPosition=bottom;labelBackgroundColor=#ffffff;verticalAlign=top;aspect=fixed;imageAspect=0;image=data:image/svg+xml,PHN2ZyB4bWxucz0iaHR0cDovL3d3dy53My5vcmcvMjAwMC9zdmciIHhtbG5zOnY9Imh0dHBzOi8vdmVjdGEuaW8vbmFubyIgd2lkdGg9IjcwMi44NDYzMTM0NzY1NjI1IiBoZWlnaHQ9IjY4MS45NjcxMDIwNTA3ODEyIiB2aWV3Qm94PSIxMC4wMDEwMjYxNTM1NjQ0NTMgMTAuMDAwOTMzNjQ3MTU1NzYyIDcwMi44NDYzMTM0NzY1NjI1IDY4MS45NjcxMDIwNTA3ODEyIj4mI3hhOwk8c3R5bGUgdHlwZT0idGV4dC9jc3MiPiYjeGE7CS5zdDB7ZmlsbDojMzI2Y2U1O30mI3hhOwkuc3Qxe2ZpbGw6I2ZmZjt9JiN4YTsJPC9zdHlsZT4mI3hhOwk8cGF0aCBjbGFzcz0ic3QwIiBkPSJNMzU4Ljk4NyAxMC4wNmMtNi4yMTMuMzEzLTEyLjMwMSAxLjg1NC0xNy45MDYgNC41MzFMOTYuNzM3IDEzMS4zNDJjLTEyLjgxMSA2LjExOC0yMi4xMTYgMTcuNjg5LTI1LjI4MSAzMS40MzhsLTYwLjI4MSAyNjIuMjVjLTIuODEyIDEyLjIwNy0uNTI0IDI1LjAyNCA2LjM0NCAzNS41MzFhNDYuMzUgNDYuMzUgMCAwIDAgMi42NTYgMy42ODhsMTY5LjEyNSAyMTAuMjgxYzguODY4IDExLjAyMiAyMi4zMTMgMTcuNDQgMzYuNTMxIDE3LjQzOGwyNzEuMjE5LS4wNjJjMTQuMjEyLjAxIDI3LjY1Ny02LjM5NiAzNi41MzEtMTcuNDA2bDE2OS4wNjMtMjEwLjMxM2M4Ljg3My0xMS4wMjggMTIuMTk3LTI1LjQ2NCA5LjAzMS0zOS4yMTlsLTYwLjM3NS0yNjIuMjVjLTMuMTY1LTEzLjc0OC0xMi40Ny0yNS4zMTktMjUuMjgxLTMxLjQzN0wzODEuNjQzIDE0LjU5MmMtNy4wNS0zLjM2OC0xNC44NDEtNC45MjYtMjIuNjU2LTQuNTMxeiIvPiYjeGE7CTxwYXRoIGNsYXNzPSJzdDEgc3QyIiBkPSJNMzYxLjQwOCA5OS4zMDhjLTguMDc3LjAwMS0xNC42MjYgNy4yNzYtMTQuNjI1IDE2LjI1IDAgLjEzOC4wMjguMjY5LjAzMS40MDYtLjAxMiAxLjIxOS0uMDcxIDIuNjg4LS4wMzEgMy43NS4xOTMgNS4xNzYgMS4zMjEgOS4xMzcgMiAxMy45MDYgMS4yMyAxMC4yMDcgMi4yNjEgMTguNjY3IDEuNjI1IDI2LjUzMS0uNjE5IDIuOTY1LTIuODAzIDUuNjc3LTQuNzUgNy41NjNsLS4zNDQgNi4xODhjLTguNzc3LjcyNy0xNy42MTIgMi4wNTktMjYuNDM3IDQuMDYzLTM3Ljk3NSA4LjYyMi03MC42NyAyOC4xODMtOTUuNTYyIDU0LjU5NC0xLjYxNS0xLjEwMi00LjQ0MS0zLjEyOS01LjI4MS0zLjc1LTIuNjExLjM1My01LjI1IDEuMTU4LTguNjg3LS44NDQtNi41NDUtNC40MDYtMTIuNTA2LTEwLjQ4Ny0xOS43MTktMTcuODEyLTMuMzA1LTMuNTA0LTUuNjk4LTYuODQxLTkuNjI1LTEwLjIxOS0uODkyLS43NjctMi4yNTMtMS44MDUtMy4yNS0yLjU5NC0zLjA3LTIuNDQ4LTYuNjkxLTMuNzI0LTEwLjE4Ny0zLjg0NC00LjQ5Ni0uMTU0LTguODI0IDEuNjA0LTExLjY1NiA1LjE1Ni01LjAzNSA2LjMxNS0zLjQyMyAxNS45NjggMy41OTQgMjEuNTYzLjA3MS4wNTcuMTQ3LjEwMS4yMTkuMTU2Ljk2NC43ODIgMi4xNDUgMS43ODMgMy4wMzEgMi40MzggNC4xNjcgMy4wNzcgNy45NzMgNC42NTEgMTIuMTI1IDcuMDk0IDguNzQ3IDUuNDAyIDE1Ljk5OCA5Ljg4MSAyMS43NSAxNS4yODEgMi4yNDYgMi4zOTQgMi42MzkgNi42MTMgMi45MzggOC40MzhsNC42ODggNC4xODhjLTI1LjA5MyAzNy43NjQtMzYuNzA3IDg0LjQwOS0yOS44NDQgMTMxLjkzOGwtNi4xMjUgMS43ODFjLTEuNjE0IDIuMDg1LTMuODk1IDUuMzY1LTYuMjgxIDYuMzQ0LTcuNTI1IDIuMzctMTUuOTk0IDMuMjQxLTI2LjIxOSA0LjMxMy00LjguMzk5LTguOTQyLjE2MS0xNC4wMzEgMS4xMjUtMS4xMi4yMTItMi42ODEuNjE5LTMuOTA2LjkwNi0uMDQzLjAwOS0uMDgyLjAyMi0uMTI1LjAzMS0uMDY3LjAxNS0uMTU1LjA0OC0uMjE5LjA2My04LjYyIDIuMDgzLTE0LjE1OCAxMC4wMDYtMTIuMzc1IDE3LjgxM3MxMC4yMDMgMTIuNTU3IDE4Ljg3NSAxMC42ODhjLjA2My0uMDE0LjE1NC0uMDE3LjIxOS0uMDMxLjA5OC0uMDIyLjE4NC0uMDcuMjgxLS4wOTQgMS4yMDktLjI2NSAyLjcyNC0uNTYxIDMuNzgxLS44NDQgNS4wMDMtMS4zNCA4LjYyNy0zLjMwOCAxMy4xMjUtNS4wMzEgOS42NzctMy40NzEgMTcuNjkyLTYuMzcgMjUuNS03LjUgMy4yNjEtLjI1NSA2LjY5NyAyLjAxMiA4LjQwNiAyLjk2OWw2LjM3NS0xLjA5NGMxNC42NyA0NS40ODMgNDUuNDE0IDgyLjI0NSA4NC4zNDQgMTA1LjMxMmwtMi42NTYgNi4zNzVjLjk1NyAyLjQ3NSAyLjAxMyA1LjgyNSAxLjMgOC4yNjktMi44MzkgNy4zNjEtNy43MDEgMTUuMTMxLTEzLjIzOCAyMy43OTMtMi42ODEgNC4wMDItNS40MjUgNy4xMDgtNy44NDQgMTEuNjg4LS41NzkgMS4wOTYtMS4zMTYgMi43NzktMS44NzUgMy45MzgtMy43NTkgOC4wNDItMS4wMDIgMTcuMzA1IDYuMjE5IDIwLjc4MSA3LjI2NiAzLjQ5OCAxNi4yODQtLjE5MSAyMC4xODctOC4yNS4wMDYtLjAxMS4wMjYtLjAyLjAzMS0uMDMxcy0uMDA0LS4wMjMgMC0uMDMxYy41NTYtMS4xNDMgMS4zNDQtMi42NDQgMS44MTMtMy43MTkgMi4wNzItNC43NDcgMi43NjItOC44MTUgNC4yMTktMTMuNDA2IDMuODctOS43MiA1Ljk5Ni0xOS45MTkgMTEuMzIzLTI2LjI3NCAxLjQ1OS0xLjc0IDMuODM3LTIuNDA5IDYuMzAyLTMuMDdsMy4zMTMtNmMzMy45MzggMTMuMDI3IDcxLjkyNyAxNi41MjIgMTA5Ljg3NSA3LjkwNmExODkuNzcgMTg5Ljc3IDAgMCAwIDI1LjA5NC03LjU2MmwzLjEyNSA1LjYyNWMyLjUwNi44MTUgNS4yNCAxLjIzNiA3LjQ2OSA0LjUzMSAzLjk4NSA2LjgwOSA2LjcxMSAxNC44NjQgMTAuMDMxIDI0LjU5NCAxLjQ1NyA0LjU5MSAyLjE3OCA4LjY1OSA0LjI1IDEzLjQwNi40NzIgMS4wODIgMS4yNTYgMi42MDUgMS44MTMgMy43NSAzLjg5NSA4LjA4NSAxMi45NDIgMTEuNzg3IDIwLjIxOSA4LjI4MSA3LjIxOS0zLjQ3OCA5Ljk4LTEyLjc0IDYuMjE5LTIwLjc4MWwtMS45MDYtMy45MzdjLTIuNDE5LTQuNTgtNS4xNjMtNy42NTQtNy44NDQtMTEuNjU2LTUuNTM3LTguNjYyLTEwLjEzLTE1Ljg1OC0xMi45NjktMjMuMjE5LTEuMTg3LTMuNzk3LjItNi4xNTggMS4xMjUtOC42MjUtLjU1NC0uNjM1LTEuNzM5LTQuMjItMi40MzctNS45MDYgNDAuNDU3LTIzLjg4OCA3MC4yOTktNjIuMDIxIDg0LjMxMy0xMDYuMDYyIDEuODkyLjI5NyA1LjE4Mi44NzkgNi4yNSAxLjA5NCAyLjItMS40NTEgNC4yMjItMy4zNDQgOC4xODgtMy4wMzEgNy44MDggMS4xMjkgMTUuODIzIDQuMDMgMjUuNSA3LjUgNC40OTggMS43MjMgOC4xMjIgMy43MjMgMTMuMTI1IDUuMDYzIDEuMDU3LjI4MyAyLjU3Mi41NDcgMy43ODEuODEzLjA5Ny4wMjQuMTgzLjA3MS4yODEuMDk0LjA2NS4wMTUuMTU2LjAxNy4yMTkuMDMxIDguNjcyIDEuODY3IDE3LjA5NC0yLjg3OSAxOC44NzUtMTAuNjg3cy0zLjc1NC0xNS43MzItMTIuMzc1LTE3LjgxMmMtMS4yNTQtLjI4NS0zLjAzMi0uNzY5LTQuMjUtMS01LjA4OS0uOTY0LTkuMjMxLS43MjYtMTQuMDMxLTEuMTI1LTEwLjIyNS0xLjA3MS0xOC42OTMtMS45NDMtMjYuMjE5LTQuMzEyLTMuMDY4LTEuMTktNS4yNTEtNC44NDEtNi4zMTMtNi4zNDRsLTUuOTA2LTEuNzE5YzMuMDYyLTIyLjE1NCAyLjIzNy00NS4yMTEtMy4wNjItNjguMjgxLTUuMzQ4LTIzLjI4NS0xNC44LTQ0LjU4MS0yNy40MDYtNjMuMzQ0bDUuMTg4LTQuNjU2Yy4yMzctMi42MjQuMDMzLTUuMzc2IDIuNzUtOC4yODEgNS43NTEtNS40MDEgMTMuMDAzLTkuODc5IDIxLjc1LTE1LjI4MSA0LjE1Mi0yLjQ0MyA3Ljk5LTQuMDE3IDEyLjE1Ni03LjA5NC45NDItLjY5NiAyLjIyOS0xLjc5OCAzLjIxOS0yLjU5NCA3LjAxNS01LjU5NiA4LjYzMS0xNS4yNDggMy41OTQtMjEuNTYycy0xNC43OTctNi45MDktMjEuODEyLTEuMzEyYy0uOTk5Ljc5MS0yLjM1NCAxLjgyMy0zLjI1IDIuNTk0LTMuOTI3IDMuMzc4LTYuMzUxIDYuNzE0LTkuNjU2IDEwLjIxOS03LjIxMiA3LjMyNi0xMy4xNzQgMTMuNDM4LTE5LjcxOSAxNy44NDQtMi44MzYgMS42NTEtNi45OSAxLjA4LTguODc1Ljk2OWwtNS41NjIgMy45NjljLTMxLjcxOS0zMy4yNjEtNzQuOTA1LTU0LjUyNS0xMjEuNDA2LTU4LjY1NmwtLjM0NC02LjUzMWMtMS45MDQtMS44MjItNC4yMDMtMy4zNzctNC43ODEtNy4zMTItLjYzNi03Ljg2NC40MjYtMTYuMzI1IDEuNjU2LTI2LjUzMS42NzktNC43NjkgMS44MDctOC43MyAyLTEzLjkwNi4wNDQtMS4xNzctLjAyNi0yLjg4NC0uMDMxLTQuMTU2LS4wMDEtOC45NzQtNi41NDgtMTYuMjUxLTE0LjYyNS0xNi4yNXptLTE4LjMxMiAxMTMuNDM4bC00LjM0NCA3Ni43MTktLjMxMi4xNTZjLS4yOTEgNi44NjMtNS45NCAxMi4zNDQtMTIuODc1IDEyLjM0NGExMi44MiAxMi44MiAwIDAgMS03LjU5NC0yLjQ2OWwtLjEyNS4wNjMtNjIuOTA2LTQ0LjU5NGMxOS4zMzQtMTkuMDExIDQ0LjA2My0zMy4wNiA3Mi41NjItMzkuNTMxIDUuMjA2LTEuMTgyIDEwLjQxLTIuMDU5IDE1LjU5NC0yLjY4N3ptMzYuNjU2IDBjMzMuMjczIDQuMDkyIDY0LjA0NSAxOS4xNTkgODcuNjI1IDQyLjI1bC02Mi41IDQ0LjMxMy0uMjE5LS4wOTRhMTIuOTEgMTIuOTEgMCAwIDEtMTcuNjg3LTIuMzc1Yy0xLjc3MS0yLjIyMS0yLjcwMS00LjgzMi0yLjgxMi03LjQ2OWwtLjA2Mi0uMDMxek0yMzIuMTI2IDI4My42Mmw1Ny40MzcgNTEuMzc1LS4wNjIuMzEzYTEyLjg4IDEyLjg4IDAgMCAxIDEuNjI1IDE3Ljc1IDEyLjg5IDEyLjg5IDAgMCAxLTYuNjg3IDQuNDA2bC0uMDYyLjI1LTczLjYyNSAyMS4yNWMtMy43NDctMzQuMjY1IDQuMzI5LTY3LjU3NCAyMS4zNzUtOTUuMzQ0em0yNTguMTU2LjAzMWM4LjUzNCAxMy44MzMgMTQuOTk3IDI5LjI4MiAxOC44NDQgNDYuMDMxIDMuODAxIDE2LjU0OCA0Ljc1NSAzMy4wNjcgMy4xODggNDkuMDMxbC03NC0yMS4zMTItLjA2Mi0uMzEyYy02LjYyNy0xLjgxMS0xMC42OTktOC41NTItOS4xNTYtMTUuMzEyLjYzMi0yLjc3IDIuMTAyLTUuMTEzIDQuMDk0LTYuODQ0bC0uMDMxLS4xNTYgNTcuMTI1LTUxLjEyNXptLTE0MC42NTYgNTUuMzEzaDIzLjUzMWwxNC42MjUgMTguMjgxLTUuMjUgMjIuODEzLTIxLjEyNSAxMC4xNTYtMjEuMTg3LTEwLjE4Ny01LjI1LTIyLjgxMnptNzUuNDM4IDYyLjU2M2ExMi44MyAxMi44MyAwIDAgMSAyLjk2OS4yMTlsLjEyNS0uMTU2IDc2LjE1NiAxMi44NzVjLTExLjE0NiAzMS4zMTMtMzIuNDczIDU4LjQ0LTYwLjk2OSA3Ni41OTRsLTI5LjU2Mi03MS40MDYuMDk0LS4xMjVjLTIuNzE2LTYuMzEuMDAyLTEzLjcxIDYuMjUtMTYuNzE5IDEuNi0uNzcgMy4yNzEtMS4xOTcgNC45MzgtMS4yODF6bS0xMjcuOTA2LjMxM2ExMi45IDEyLjkgMCAwIDEgMTIuMzc1IDEwLjAzMSAxMi43NyAxMi43NyAwIDAgMS0uNzE5IDcuOTM4bC4yMTkuMjgxLTI5LjI1IDcwLjY4OGMtMjcuMzQ3LTE3LjU0OS00OS4xMjktNDMuODI0LTYwLjc4MS03Ni4wNjJsNzUuNS0xMi44MTIuMTI1LjE1NmMuODQ1LS4xNTUgMS43MDEtLjIzIDIuNTMxLS4yMTl6bTYzLjc4MSAzMC45NjljMi4wMjQtLjA3NCA0LjA3OS4zNDEgNi4wMzEgMS4yODEgMi41NiAxLjIzMyA0LjUzNyAzLjE3MyA1Ljc4MSA1LjVoLjI4MWwzNy4yMTkgNjcuMjVjLTQuODMgMS42MTktOS43OTYgMy4wMDMtMTQuODc1IDQuMTU2LTI4LjQ2NSA2LjQ2My01Ni44MzkgNC41MDUtODIuNTMxLTQuMjVsMzcuMTI1LTY3LjEyNWguMDYzYTEyLjkxIDEyLjkxIDAgMCAxIDEwLjkwNi02LjgxMnoiIHN0cm9rZT0ibm9uZSIgc3Ryb2tlLXdpZHRoPSIuMjUiLz4mI3hhOzwvc3ZnPg==;fontColor=default;" parent="00Jyg5K4TKUmTONpTBTu-1" vertex="1">
          <mxGeometry x="37.25" y="-565" width="40" height="38" as="geometry" />
        </mxCell>
        <mxCell id="TwaNV9ldxMqnKcr1kfX8-2" value="" style="editableCssRules=.*;html=1;shape=image;verticalLabelPosition=bottom;labelBackgroundColor=#ffffff;verticalAlign=top;aspect=fixed;imageAspect=0;image=data:image/svg+xml,PHN2ZyB4bWxucz0iaHR0cDovL3d3dy53My5vcmcvMjAwMC9zdmciIHhtbG5zOnhsaW5rPSJodHRwOi8vd3d3LnczLm9yZy8xOTk5L3hsaW5rIiB4bWxuczp2PSJodHRwczovL3ZlY3RhLmlvL25hbm8iIHdpZHRoPSI3MTguNjM1MDcwODAwNzgxMiIgaGVpZ2h0PSIxMDYuNjUwMDAxNTI1ODc4OSIgdmlld0JveD0iMTAgMTAgNzE4LjYzNTA3MDgwMDc4MTIgMTA2LjY1MDAwMTUyNTg3ODkiPiYjeGE7CTxzdHlsZSB0eXBlPSJ0ZXh0L2NzcyI+JiN4YTsJLnN0MHtmaWxsOiMzMjZkZTU7fSYjeGE7CTwvc3R5bGU+JiN4YTsJPGcgY2xhc3M9InN0MCIgZmlsbD0iIzMyNmRlNSI+JiN4YTsJCTxwYXRoIGQ9Ik0zMC4xMTUgNjkuNGw2LjA3NS02Ljc1IDYuMjEtNi44ODUgNS41MzUtNi42MTUgNC41OS01LjRINzYuNDJMNjIuMzggNTkuNTQ1Yy00LjUgNC45NS05LjQ1IDEwLjA4LTE0Ljg1IDE1LjM5IDIuNyAyLjQzIDUuNDkgNS4zNTUgOC4zNyA4Ljc3NWExOTEuODYgMTkxLjg2IDAgMCAxIDguMzcgMTAuMzk1YzIuNyAzLjYgNS4xNzUgNy4yIDcuNDI1IDEwLjhzNC4xNCA2Ljg4NSA1LjY3IDkuODU1SDU0LjI4Yy0xLjQ0LTIuMzQtMy4xMDUtNC45MDUtNC45OTUtNy42OTUtMS44LTIuODgtMy43MzUtNS43MTUtNS44MDUtOC41MDVhOTguMDcgOTguMDcgMCAwIDAtNi42MTUtOC4yMzVjLTIuMjUtMi42MS00LjUtNC44MTUtNi43NS02LjYxNXYzMS4wNUgxMFYxMy4yNEwzMC4xMTUgMTB2NTkuNG0xMTcuMjI5IDQyLjkzYy0zLjQyLjk5LTcuODMgMS44OS0xMy4yMyAyLjctNS40LjktMTEuMDcgMS4zNS0xNy4wMSAxLjM1LTYuMDMgMC0xMS4wNy0uODEtMTUuMTItMi40My0zLjk2LTEuNjItNy4xMS0zLjg3LTkuNDUtNi43NS0yLjM0LTIuOTctNC4wMDUtNi40OC00Ljk5NS0xMC41M3MtMS40ODUtOC41MDUtMS40ODUtMTMuMzY1VjQzLjc1aDIwLjExNXYzNy4xMjVjMCA2LjQ4Ljg1NSAxMS4xNiAyLjU2NSAxNC4wNHM0LjkwNSA0LjMyIDkuNTg1IDQuMzJhODIuOTUgODIuOTUgMCAwIDAgNC41OS0uMTM1bDQuMzItLjU0VjQzLjc1aDIwLjExNXY2OC41OG02NC41MDktMzMuNjE1YzAtMTIuOTYtNC43Ny0xOS40NC0xNC4zMS0xOS40NC0yLjA3IDAtNC4xNC4yNy02LjIxLjgxLTEuOTguNTQtMy42IDEuMjE1LTQuODYgMi4wMjV2MzYuNTg1Yy45OS4xOCAyLjI1LjM2IDMuNzguNTRhODUuNDQgODUuNDQgMCAwIDAgNC45OTUuMTM1YzUuNDkgMCA5LjYzLTEuODkgMTIuNDItNS42N3M0LjE4NS04Ljc3NSA0LjE4NS0xNC45ODVtMjAuNTIuNTRjMCA1LjY3LS44NTUgMTAuOC0yLjU2NSAxNS4zOS0xLjYyIDQuNTktNC4wMDUgOC41MDUtNy4xNTUgMTEuNzQ1cy03LjAyIDUuNzYtMTEuNjEgNy41NmMtNC41OSAxLjcxLTkuODEgMi41NjUtMTUuNjYgMi41NjUtMi40MyAwLTQuOTk1LS4xMzUtNy42OTUtLjQwNWExMTUuMzkgMTE1LjM5IDAgMCAxLTcuODMtLjgxYy0yLjUyLS4zNi00Ljk1LS43NjUtNy4yOS0xLjIxNS0yLjM0LS41NC00LjQxLTEuMDgtNi4yMS0xLjYyVjEzLjI0TDE4Ni40NzMgMTB2MzUuMzdjMi4yNS0uOTkgNC41OS0xLjc1NSA3LjAyLTIuMjk1czUuMDQtLjgxIDcuODMtLjgxYzUuMDQgMCA5LjQ5NS45IDEzLjM2NSAyLjcgMy44NyAxLjcxIDcuMTEgNC4xODUgOS43MiA3LjQyNXM0LjU5IDcuMTU1IDUuOTQgMTEuNzQ1YzEuMzUgNC41IDIuMDI1IDkuNTQgMi4wMjUgMTUuMTIiLz4mI3hhOwkJPHVzZSB4bGluazpocmVmPSIjQiIvPiYjeGE7CQk8cGF0aCBkPSJNMzY5LjQ2NSA2MS41N2wtNi4zNDUtMS4zNWMtMi40My0uNTQtNS4wNC0uODEtNy44My0uODEtMS4yNiAwLTIuNzkuMTM1LTQuNTkuNDA1LTEuNzEuMTgtMy4wMTUuNDA1LTMuOTE1LjY3NXY1NC4yN0gzMjYuNjdWNDcuNTNjMy42LTEuMjYgNy44My0yLjQzIDEyLjY5LTMuNTEgNC45NS0xLjE3IDEwLjQ0LTEuNzU1IDE2LjQ3LTEuNzU1IDEuMDggMCAyLjM4NS4wOSAzLjkxNS4yN2EzOS45IDM5LjkgMCAwIDEgNC41OS41NCA0MC45MiA0MC45MiAwIDAgMSA0LjU5LjgxYzEuNTMuMjcgMi44MzUuNjMgMy45MTUgMS4wOGwtMy4zNzUgMTYuNjA1bTE0LjE1OC0xNS4zOWMzLjQyLS45OSA3LjgzLTEuODkgMTMuMjMtMi43IDUuNC0uOSAxMS4wNy0xLjM1IDE3LjAxLTEuMzUgNi4wMyAwIDExLjAyNS44MSAxNC45ODUgMi40MyA0LjA1IDEuNTMgNy4yNDUgMy43MzUgOS41ODUgNi42MTVzNC4wMDUgNi4zIDQuOTk1IDEwLjI2IDEuNDg1IDguMzcgMS40ODUgMTMuMjN2NDAuMDk1aC0yMC4xMTVWNzcuMDk1YzAtNi40OC0uODU1LTExLjA3LTIuNTY1LTEzLjc3cy00LjkwNS00LjA1LTkuNTg1LTQuMDVhNDEuNjYgNDEuNjYgMCAwIDAtNC41OS4yNyA1MC43NyA1MC43NyAwIDAgMC00LjMyLjQwNXY1NC44MWgtMjAuMTE1VjQ2LjE4bTc2LjI1NCAzMy42MTVjMC02LjMuOTQ1LTExLjc5IDIuODM1LTE2LjQ3IDEuOTgtNC43NyA0LjU0NS04LjczIDcuNjk1LTExLjg4czYuNzUtNS41MzUgMTAuOC03LjE1NWM0LjE0LTEuNjIgOC4zNy0yLjQzIDEyLjY5LTIuNDMgMTAuMDggMCAxOC4wNDUgMy4xMDUgMjMuODk1IDkuMzE1IDUuODUgNi4xMiA4Ljc3NSAxNS4xNjUgOC43NzUgMjcuMTM1IDAgMS4xNy0uMDQ1IDIuNDc1LS4xMzUgMy45MTVsLS4yNyAzLjY0NWgtNDUuNjNjLjQ1IDQuMTQgMi4zODUgNy40MjUgNS44MDUgOS44NTVzOC4wMSAzLjY0NSAxMy43NyAzLjY0NWMzLjY5IDAgNy4yOS0uMzE1IDEwLjgtLjk0NSAzLjYtLjcyIDYuNTI1LTEuNTc1IDguNzc1LTIuNTY1bDIuNyAxNi4zMzVjLTEuMDguNTQtMi41MiAxLjA4LTQuMzIgMS42MnMtMy44MjUuOTktNi4wNzUgMS4zNWMtMi4xNi40NS00LjUuODEtNy4wMiAxLjA4cy01LjA0LjQwNS03LjU2LjQwNWMtNi4zOSAwLTExLjk3LS45NDUtMTYuNzQtMi44MzUtNC42OC0xLjg5LTguNTk1LTQuNDU1LTExLjc0NS03LjY5NS0zLjA2LTMuMzMtNS4zNTUtNy4yNDUtNi44ODUtMTEuNzQ1LTEuNDQtNC41LTIuMTYtOS4zNi0yLjE2LTE0LjU4bTQ3LjI1LTcuNjk1YTE4Ljg2IDE4Ljg2IDAgMCAwLS45NDUtNC45OTVjLS40NS0xLjYyLTEuMjE1LTMuMDYtMi4yOTUtNC4zMi0uOTktMS4yNi0yLjI5NS0yLjI5NS0zLjkxNS0zLjEwNS0xLjUzLS44MS0zLjQ2NS0xLjIxNS01LjgwNS0xLjIxNS0yLjI1IDAtNC4xODUuNDA1LTUuODA1IDEuMjE1LTEuNjIuNzItMi45NyAxLjcxLTQuMDUgMi45N3MtMS45MzUgMi43NDUtMi41NjUgNC40NTVhMzEuMTEgMzEuMTEgMCAwIDAtMS4yMTUgNC45OTVoMjYuNTk1bTM0LjI4OC00Ni4wMzVsMjAuMTE1LTMuMjRWNDMuNzVoMjQuMTY1djE2Ljc0SDU2MS41M3YyNC45NzVjMCA0LjIzLjcyIDcuNjA1IDIuMTYgMTAuMTI1IDEuNTMgMi41MiA0LjU0NSAzLjc4IDkuMDQ1IDMuNzggMi4xNiAwIDQuMzY1LS4xOCA2LjYxNS0uNTQgMi4zNC0uNDUgNC40NTUtMS4wMzUgNi4zNDUtMS43NTVsMi44MzUgMTUuNjZjLTIuNDMuOTktNS4xMyAxLjg0NS04LjEgMi41NjVzLTYuNjE1IDEuMDgtMTAuOTM1IDEuMDhjLTUuNDkgMC0xMC4wMzUtLjcyLTEzLjYzNS0yLjE2LTMuNi0xLjUzLTYuNDgtMy42LTguNjQtNi4yMS0yLjE2LTIuNy0zLjY5LTUuOTQtNC41OS05LjcyLS44MS0zLjc4LTEuMjE1LTcuOTY1LTEuMjE1LTEyLjU1NXYtNTkuNjciLz4mI3hhOwkJPHVzZSB4bGluazpocmVmPSIjQiIgeD0iMzUxLjQ3NSIvPiYjeGE7CQk8cGF0aCBkPSJNNjk4LjUzIDEwMC4zMTVjMy42OSAwIDYuMy0uMzYgNy44My0xLjA4czIuMjk1LTIuMTE1IDIuMjk1LTQuMTg1YzAtMS42Mi0uOTktMy4wMTUtMi45Ny00LjE4NS0xLjk4LTEuMjYtNC45OTUtMi42NTUtOS4wNDUtNC4xODVMNjg4IDgzLjAzNWMtMi41Mi0xLjI2LTQuNjgtMi43NDUtNi40OC00LjQ1NS0xLjgtMS44LTMuMTk1LTMuOTE1LTQuMTg1LTYuMzQ1cy0xLjQ4NS01LjM1NS0xLjQ4NS04Ljc3NWMwLTYuNjYgMi40NzUtMTEuOTI1IDcuNDI1LTE1Ljc5NXMxMS43NDUtNS44MDUgMjAuMzg1LTUuODA1YzQuMzIgMCA4LjQ2LjQwNSAxMi40MiAxLjIxNSAzLjk2LjcyIDcuMTEgMS41MyA5LjQ1IDIuNDNsLTMuNTEgMTUuNjZjLTIuMzQtLjgxLTQuOTA1LTEuNTMtNy42OTUtMi4xNi0yLjctLjYzLTUuNzYtLjk0NS05LjE4LS45NDUtNi4zIDAtOS40NSAxLjc1NS05LjQ1IDUuMjY1IDAgLjgxLjEzNSAxLjUzLjQwNSAyLjE2cy44MSAxLjI2IDEuNjIgMS44OWMuODEuNTQgMS44OSAxLjE3IDMuMjQgMS44OSAxLjQ0LjYzIDMuMjQgMS4zNSA1LjQgMi4xNiA0LjQxIDEuNjIgOC4wNTUgMy4yNCAxMC45MzUgNC44NiAyLjg4IDEuNTMgNS4xMyAzLjI0IDYuNzUgNS4xMyAxLjcxIDEuOCAyLjg4IDMuODI1IDMuNTEgNi4wNzUuNzIgMi4yNSAxLjA4IDQuODYgMS4wOCA3LjgzIDAgNy4wMi0yLjY1NSAxMi4zMy03Ljk2NSAxNS45My01LjIyIDMuNi0xMi42NDUgNS40LTIyLjI3NSA1LjQtNi4zIDAtMTEuNTY1LS41NC0xNS43OTUtMS42Mi00LjE0LTEuMDgtNy4wMi0xLjk4LTguNjQtMi43bDMuMzc1LTE2LjMzNWE3MS4yIDcxLjIgMCAwIDAgMTAuNTMgMy4yNCA1NC4yOCA1NC4yOCAwIDAgMCAxMC42NjUgMS4wOCIvPiYjeGE7CTwvZz4mI3hhOwk8ZGVmcz4mI3hhOwkJPHBhdGggaWQ9IkIiIGQ9Ik0yNDQuNDU3IDc5Ljc5NWMwLTYuMy45NDUtMTEuNzkgMi44MzUtMTYuNDcgMS45OC00Ljc3IDQuNTQ1LTguNzMgNy42OTUtMTEuODhzNi43NS01LjUzNSAxMC44LTcuMTU1YzQuMTQtMS42MiA4LjM3LTIuNDMgMTIuNjktMi40MyAxMC4wOCAwIDE4LjA0NSAzLjEwNSAyMy44OTUgOS4zMTUgNS44NSA2LjEyIDguNzc1IDE1LjE2NSA4Ljc3NSAyNy4xMzUgMCAxLjE3LS4wNDUgMi40NzUtLjEzNSAzLjkxNWwtLjI3IDMuNjQ1aC00NS42M2MuNDUgNC4xNCAyLjM4NSA3LjQyNSA1LjgwNSA5Ljg1NXM4LjAxIDMuNjQ1IDEzLjc3IDMuNjQ1YzMuNjkgMCA3LjI5LS4zMTUgMTAuOC0uOTQ1IDMuNi0uNzIgNi41MjUtMS41NzUgOC43NzUtMi41NjVsMi43IDE2LjMzNWMtMS4wOC41NC0yLjUyIDEuMDgtNC4zMiAxLjYycy0zLjgyNS45OS02LjA3NSAxLjM1Yy0yLjE2LjQ1LTQuNS44MS03LjAyIDEuMDhzLTUuMDQuNDA1LTcuNTYuNDA1Yy02LjM5IDAtMTEuOTctLjk0NS0xNi43NC0yLjgzNS00LjY4LTEuODktOC41OTUtNC40NTUtMTEuNzQ1LTcuNjk1LTMuMDYtMy4zMy01LjM1NS03LjI0NS02Ljg4NS0xMS43NDUtMS40NC00LjUtMi4xNi05LjM2LTIuMTYtMTQuNThtNDcuMjUtNy42OTVhMTguODYgMTguODYgMCAwIDAtLjk0NS00Ljk5NWMtLjQ1LTEuNjItMS4yMTUtMy4wNi0yLjI5NS00LjMyLS45OS0xLjI2LTIuMjk1LTIuMjk1LTMuOTE1LTMuMTA1LTEuNTMtLjgxLTMuNDY1LTEuMjE1LTUuODA1LTEuMjE1LTIuMjUgMC00LjE4NS40MDUtNS44MDUgMS4yMTUtMS42Mi43Mi0yLjk3IDEuNzEtNC4wNSAyLjk3cy0xLjkzNSAyLjc0NS0yLjU2NSA0LjQ1NWMtLjU0IDEuNjItLjk0NSAzLjI4NS0xLjIxNSA0Ljk5NWgyNi41OTUiLz4mI3hhOwk8L2RlZnM+JiN4YTs8L3N2Zz4=;fontColor=default;" parent="00Jyg5K4TKUmTONpTBTu-1" vertex="1">
          <mxGeometry x="97.25" y="-555.75" width="130" height="19.26" as="geometry" />
        </mxCell>
        <mxCell id="TwaNV9ldxMqnKcr1kfX8-10" style="edgeStyle=orthogonalEdgeStyle;rounded=0;orthogonalLoop=1;jettySize=auto;html=1;strokeColor=#666666;" parent="00Jyg5K4TKUmTONpTBTu-1" source="TwaNV9ldxMqnKcr1kfX8-4" target="00Jyg5K4TKUmTONpTBTu-73" edge="1">
          <mxGeometry relative="1" as="geometry" />
        </mxCell>
        <mxCell id="TwaNV9ldxMqnKcr1kfX8-4" value="Push new code" style="text;html=1;align=center;verticalAlign=middle;resizable=0;points=[];autosize=1;strokeColor=none;fillColor=none;" parent="00Jyg5K4TKUmTONpTBTu-1" vertex="1">
          <mxGeometry x="47.25" y="-1115" width="110" height="30" as="geometry" />
        </mxCell>
        <mxCell id="TwaNV9ldxMqnKcr1kfX8-11" value="Check the CI Job in Azure DevOps Job" style="text;html=1;align=center;verticalAlign=middle;resizable=0;points=[];autosize=1;strokeColor=none;fillColor=none;" parent="00Jyg5K4TKUmTONpTBTu-1" vertex="1">
          <mxGeometry x="175.75" y="-992" width="230" height="30" as="geometry" />
        </mxCell>
        <mxCell id="TwaNV9ldxMqnKcr1kfX8-18" value="" style="outlineConnect=0;dashed=0;verticalLabelPosition=bottom;verticalAlign=top;align=center;html=1;shape=mxgraph.aws3.queue;fillColor=#D9A741;gradientColor=none;" parent="00Jyg5K4TKUmTONpTBTu-1" vertex="1">
          <mxGeometry x="737.25" y="-1009.75" width="73.5" height="48" as="geometry" />
        </mxCell>
        <mxCell id="TwaNV9ldxMqnKcr1kfX8-19" style="edgeStyle=orthogonalEdgeStyle;rounded=0;orthogonalLoop=1;jettySize=auto;html=1;exitX=1;exitY=0.5;exitDx=0;exitDy=0;" parent="00Jyg5K4TKUmTONpTBTu-1" source="TwaNV9ldxMqnKcr1kfX8-21" target="TwaNV9ldxMqnKcr1kfX8-18" edge="1">
          <mxGeometry relative="1" as="geometry" />
        </mxCell>
        <mxCell id="TwaNV9ldxMqnKcr1kfX8-23" value="" style="rounded=0;whiteSpace=wrap;html=1;fillColor=#dae8fc;strokeColor=#6c8ebf;" parent="00Jyg5K4TKUmTONpTBTu-1" vertex="1">
          <mxGeometry x="27.25" y="-765" width="240" height="149.63" as="geometry" />
        </mxCell>
        <mxCell id="TwaNV9ldxMqnKcr1kfX8-22" value="" style="edgeStyle=orthogonalEdgeStyle;rounded=0;orthogonalLoop=1;jettySize=auto;html=1;exitX=1;exitY=0.5;exitDx=0;exitDy=0;endArrow=none;endFill=0;" parent="00Jyg5K4TKUmTONpTBTu-1" source="00Jyg5K4TKUmTONpTBTu-73" target="TwaNV9ldxMqnKcr1kfX8-21" edge="1">
          <mxGeometry relative="1" as="geometry">
            <mxPoint x="327.25" y="-1100" as="sourcePoint" />
            <mxPoint x="804.25" y="-959" as="targetPoint" />
          </mxGeometry>
        </mxCell>
        <mxCell id="TwaNV9ldxMqnKcr1kfX8-21" value="&lt;div&gt;Add job task in the AD Queue&lt;/div&gt;" style="text;html=1;align=center;verticalAlign=middle;resizable=0;points=[];autosize=1;strokeColor=none;fillColor=none;" parent="00Jyg5K4TKUmTONpTBTu-1" vertex="1">
          <mxGeometry x="478.75" y="-1115" width="180" height="30" as="geometry" />
        </mxCell>
        <mxCell id="TwaNV9ldxMqnKcr1kfX8-13" value="" style="sketch=0;html=1;dashed=0;whitespace=wrap;fillColor=#2875E2;strokeColor=#ffffff;points=[[0.005,0.63,0],[0.1,0.2,0],[0.9,0.2,0],[0.5,0,0],[0.995,0.63,0],[0.72,0.99,0],[0.5,1,0],[0.28,0.99,0]];verticalLabelPosition=bottom;align=center;verticalAlign=top;shape=mxgraph.kubernetes.icon;prIcon=pod" parent="00Jyg5K4TKUmTONpTBTu-1" vertex="1">
          <mxGeometry x="17.25" y="-645.12" width="50" height="48" as="geometry" />
        </mxCell>
        <mxCell id="TwaNV9ldxMqnKcr1kfX8-24" style="edgeStyle=orthogonalEdgeStyle;rounded=0;orthogonalLoop=1;jettySize=auto;html=1;exitX=0.993;exitY=0.4;exitDx=0;exitDy=0;exitPerimeter=0;entryX=0.5;entryY=1;entryDx=0;entryDy=0;entryPerimeter=0;" parent="00Jyg5K4TKUmTONpTBTu-1" source="TwaNV9ldxMqnKcr1kfX8-25" target="TwaNV9ldxMqnKcr1kfX8-18" edge="1">
          <mxGeometry relative="1" as="geometry">
            <Array as="points">
              <mxPoint x="774.25" y="-825" />
            </Array>
          </mxGeometry>
        </mxCell>
        <mxCell id="TwaNV9ldxMqnKcr1kfX8-27" style="edgeStyle=orthogonalEdgeStyle;rounded=0;orthogonalLoop=1;jettySize=auto;html=1;exitX=0.5;exitY=0;exitDx=0;exitDy=0;entryX=0.005;entryY=0.517;entryDx=0;entryDy=0;entryPerimeter=0;endArrow=none;endFill=0;" parent="00Jyg5K4TKUmTONpTBTu-1" source="TwaNV9ldxMqnKcr1kfX8-16" target="TwaNV9ldxMqnKcr1kfX8-25" edge="1">
          <mxGeometry relative="1" as="geometry">
            <mxPoint x="527.25" y="-825" as="targetPoint" />
          </mxGeometry>
        </mxCell>
        <mxCell id="TwaNV9ldxMqnKcr1kfX8-16" value="" style="shape=image;html=1;verticalAlign=top;verticalLabelPosition=bottom;labelBackgroundColor=#ffffff;imageAspect=0;aspect=fixed;image=https://cdn1.iconfinder.com/data/icons/DarkGlass_Reworked/128x128/mimetypes/source_py.png" parent="00Jyg5K4TKUmTONpTBTu-1" vertex="1">
          <mxGeometry x="98.25" y="-753" width="98" height="98" as="geometry" />
        </mxCell>
        <mxCell id="TwaNV9ldxMqnKcr1kfX8-17" value="polling.py" style="text;html=1;align=center;verticalAlign=middle;resizable=0;points=[];autosize=1;strokeColor=none;fillColor=none;" parent="00Jyg5K4TKUmTONpTBTu-1" vertex="1">
          <mxGeometry x="107.25" y="-665.12" width="80" height="30" as="geometry" />
        </mxCell>
        <mxCell id="TwaNV9ldxMqnKcr1kfX8-25" value="Check every minute&lt;br&gt;the queue" style="text;html=1;align=center;verticalAlign=middle;resizable=0;points=[];autosize=1;strokeColor=none;fillColor=none;" parent="00Jyg5K4TKUmTONpTBTu-1" vertex="1">
          <mxGeometry x="396.24999999999994" y="-840.37" width="130" height="40" as="geometry" />
        </mxCell>
        <mxCell id="TwaNV9ldxMqnKcr1kfX8-28" value="Polling Pod" style="text;html=1;strokeColor=none;fillColor=none;align=center;verticalAlign=middle;whiteSpace=wrap;rounded=0;fontStyle=1" parent="00Jyg5K4TKUmTONpTBTu-1" vertex="1">
          <mxGeometry x="55.059999999999945" y="-635.37" width="184.38" height="20" as="geometry" />
        </mxCell>
        <mxCell id="TwaNV9ldxMqnKcr1kfX8-32" value="" style="endArrow=classic;html=1;rounded=0;exitX=1;exitY=0.5;exitDx=0;exitDy=0;entryX=0;entryY=0.25;entryDx=0;entryDy=0;" parent="00Jyg5K4TKUmTONpTBTu-1" source="TwaNV9ldxMqnKcr1kfX8-23" target="TwaNV9ldxMqnKcr1kfX8-29" edge="1">
          <mxGeometry width="50" height="50" relative="1" as="geometry">
            <mxPoint x="307.25" y="-645.12" as="sourcePoint" />
            <mxPoint x="357.25" y="-695.12" as="targetPoint" />
          </mxGeometry>
        </mxCell>
        <mxCell id="TwaNV9ldxMqnKcr1kfX8-45" value="Create Job per task" style="text;html=1;strokeColor=none;fillColor=none;align=center;verticalAlign=middle;whiteSpace=wrap;rounded=0;" parent="00Jyg5K4TKUmTONpTBTu-1" vertex="1">
          <mxGeometry x="287.25" y="-657.99" width="80" height="60.12" as="geometry" />
        </mxCell>
        <mxCell id="TwaNV9ldxMqnKcr1kfX8-46" value="" style="endArrow=classic;html=1;rounded=0;exitX=1;exitY=0.5;exitDx=0;exitDy=0;entryX=0;entryY=0.25;entryDx=0;entryDy=0;" parent="00Jyg5K4TKUmTONpTBTu-1" source="TwaNV9ldxMqnKcr1kfX8-23" target="TwaNV9ldxMqnKcr1kfX8-40" edge="1">
          <mxGeometry width="50" height="50" relative="1" as="geometry">
            <mxPoint x="307.25" y="-775" as="sourcePoint" />
            <mxPoint x="357.25" y="-825" as="targetPoint" />
          </mxGeometry>
        </mxCell>
        <mxCell id="TwaNV9ldxMqnKcr1kfX8-40" value="" style="rounded=1;whiteSpace=wrap;html=1;fillColor=#d5e8d4;strokeColor=#82b366;" parent="00Jyg5K4TKUmTONpTBTu-1" vertex="1">
          <mxGeometry x="435.75" y="-645.12" width="188.5" height="69.25" as="geometry" />
        </mxCell>
        <mxCell id="TwaNV9ldxMqnKcr1kfX8-42" value="" style="shape=image;aspect=fixed;image=data:image/png,iVBORw0KGgoAAAANSUhEUgAAAgAAAAIACAMAAADDpiTIAAAC9FBMVEUAAAAAAAAAAAAAAAAAAAAAAAAAAAAAAAAAAAAAAAAAAAAAAAAAAAAAAAAAAAAAAAAAAAAAAAAAAAAAAAAAAAAAAAAAAAAAAAAAAAAAAAAAAAAAAAAAAAAAAAAAAAAAAAAAAAAAAAAAAAAAAAAAAAAAAAAAAAAAAAAAAAAAAAAAAAAAAAAAAAAAAAAAAAAAAAAAAAAAAAAAAAAAAAAAAAAAAAAAAAAAAAAAAAAAAAAAAAAAAAAAAAAAAAAAAAAAAAAAAAAAAAAAAAAAAAAAAAAAAAAAAAAAAAAAAAAAAAAAAAAAAAAAAAAAAAAAAAAAAAAAAAAAAAAAAAAAAAAAAAAAAAAAAAAAAAAAAAAAAAAAAAAAAAAAAAAAAAAAAAAAAAAAAAAAAAAAAAAAAAAAAAAAAAAAAAAAAAAAAAAAAAAAAAAAAAAAAAAAAAAAAAAAAAAAAAAAAAAAAAAAAAAAAAAAAAAAAAAAAAAAAAAAAAAAAAAAAAAAAAAAAAAAAAAAAAAAAAAAAAAAAAAAAAAAAAAAAAAAAAAAAAAAAAAAAAAAAAAAAAAAAAAAAAAAAAAAAAAAAAAAAAAAAAAAAAAAAAAAAAAAAAAAAAAAAAAAAAAAAAAAAAAAAAAAAAAAAAAAAAAAAAAAAAAAAAAAAAAAAAAAAAAAAAAAAAAAAAAAAAAAAAAAAAAAAAAAAAAAAAAAAAAAAAAAAAAAAAAAAAAAAAAAAAAAAAAAAAAAAAAAAAAAAAAAAAAAAAAAAAAAAAAAAAAAAAAAAAAAAAAAAAAAAAAAAAAAAAAAAAAAAAAAAAAAAAAAAAAAAAAAAAAAAAAAAAAAAAAAAAAAAAAAAAAAAAAAAAAAAAAAAAAAAAAAAAAAAAAAAAAAAAAAAAAAAAAAAAAAAAAAAAAAAAAAAAAAAAAAAAAAAAAAAAAAAAAAAAAAAAAAAAAAAAAAAAAAAAAAAAAAAAAAAAAAAAAAAAAAAAAAAAAAAAAAAAAAAAAAAAAAAAAAAAB7FRQ7AAAA+3RSTlMAGk52nbvT6e7+9Mukbi0BFlzh3H8ZEGS//feVLpr1ZTOxqw4fqNEFfvYw0F4JFMMVkyUYHOB9EtXaA7YqjmxNoerJteZpBMcy+gjUkkTip1ob7W8pyoM0C9mYR+eqYAK+dQeJO/wM255P6LIh8sF7MfnSjz37UhEiRWKAn/GjcDiExFVyJ4zd7LpdDS+3dz5qxVMP5Sa0BtfIQN+IogrYvEiR1pcdbVtB7yNRvT/wz4U681aGh69Mud7rNXHCIMB5+EqgizyszWN0aCTGWXympVc2OSiQglhCRhepE3MsQzdrZrONra5UnOSKzJl4eoEelEu4m1/OK1Bn4/deOgwAABSDSURBVHja7Z37o1VlmcfXiYxzKDwoG/SQ4omLCAgql8GE8pKeALNUNLCgoycUES00jogMyoikCdKUoeIBNK/YxbJMxa5qmmYXR0odM5usyZpxmkab6bJ/Gbme29p7v2ut532/z1rP9/MHsN71fD7ss88+e71vFJFa1L2pz5v3ekvf+oZyvunX961v6793I3qc+WLAPm/bFy1OloGlQeih5obB++3fhPblgSFvH4CebC444MChaFW+qD8IPVz9NL8j7z/yqzJsOHrAuhkxstD63+BgvhOozKhDRqP9+GcgC6jEmLFoOUEYy58C8Rxq4L//DoahJ62ScSPRXsKxH3rYChl/GNpKQOoPR49bHSMGoqUE5Qj0vLUxoWAf+9Zi9ET0xHUxaTLaSGj+AT1yVUw5Eu0jOO9Ez1wTR01F6wAwDT11RbwLLQPBu9FT18PRRf/0P5Zj0GNXw8Rj0S4gHIeeuxYa34NWgeF49OC1cALaBIh+6MErYUI/tAkQDejJ66DlvWgRMNCj18EhaA0MAMr0GWgNDADJzBPRFhgAlPehJTAAKCeZ/AiQAexm8PvRDhgAlA+gFTAAKCejDTAAKKecijbAAJA0TkULQIM2AGYWev5w0AawnGblISAGEEvL6ejx40E7gPJB9PQVgHaAZLbhvwHtAS0ByJwz0MPXANoCkA+hZ68CtAUcHzb9N6A9oDXAGD8XPXodoD3AmIeevBLQHlB8BD14LaBFgJhUjx68FtAmMLSeiZ67GtAqMJyFHrse0CogTBuCHrse0C4QtI1FT10RaBkIPooeuibQMgDMPxs9dE2gbYTnnAXomasCrSM856JHrgu0juAsRE9cGWgfoTn8PPTElYEWEppF6IFrAy0kMAeh560OtJGwnH8Bet7qQCsJSuvH0OPWB9pJUD6OnrZC0E5CsvhC9LQVgpYSkLaL0MPWCNpKQD6BnrVK0FbCsaSI50BnB60lGIMVHQfUvuA973r3xUtOO3zpnCgaN/6SxcsuXf6Ph61gAD65DG19F+8fefnKtvglnr/wn64I/rgi2ksoVqHFb+fCva5cXWOdc5Z98ioGIE/d1Wj55aZPXbPGbbFrS+9kALI0XovWP3DdpCTr/fQxQxmAIP8M1v+Zzx6VdMnX9fkcA5Bifaj/TvFcvzLVqm+49EYGIELLBqT+DTelXnjrqg4GIEAJqP+MhZmWPq6P708H0HIC0IzbCmjGxplZVz9xEwPIxuabYf5vWS9xA5/3+sEAWo9/3o7SP2RWo8wdbL6VAaRnGWoroNvWyt3Exf4+x0L78c2UML9N9+b2cZK3cYe3PU3RgnwzEqO//U7h+2h7MwNIw10Y/1dvkb+V/n6eaUUb8ssdd0P8D/yCj5v5opdtLdCKvNL6JYj/m5P83ScBX76HASTjcoj/sQN83c9iD78MoB35BLMV0Fem+LujZvnXALQkj4yCHAdx1USf97RS/Nk2tCWPfBXhf66X93+dbJF+uAVtyR/3IrYC+prgx3/xSO9xi9bkjTkBv1e3h4av+7+x+xiAEwcC/Je/EeDGGu9nAA48gPD/YOJv/qVh8FYGUBPIcRAPef0FoJNvSr4RRJvyhOzLpCNfDHV332IANbgU4f/cYLfX+m0GUJXvIJ6zPH54uBtcLfcZJ9qVD1q/C/Bf3ifkLX6PAVShD8L/t4W+AOhGy5EMoCIHPAzwf7b3jwC78wgDqETbwQD/5UdD3+aDDKAC30f4n+H5b0C9WSu04w1alziPQY6DODD8jT7OAOIY3oHw3z4i/J02M4A4HkX4L49E3KrMuwC0MGEuhvgvz0fc6xYG0IsBfSH+f4C529sYQA8ar4f4Lz+Bud0nGUAPfojxP2Qw5nbHS3zihXYmyVP9MAEMQ92wxG+CaGmCtPwI47+cbReYDPyYAXTlJyD//dqyrz0dwwV+BqCtyTEddRzEItw9C7zpRWsTY5zIL0VpOAF30wKHoKG9ieFzH53qXIK76QkMYDcnobYCKm9F3nb2DXDQ4oQAHgfxU+R9Z98BB21OiKdh/sv9kfedfRdstDkZ/gXnv/wM8sa3MYDt1J2K898kuh1cUtZkfuuDdidB41Scf+x7wCiazACiqD/Qf3kq9t4zfxSElifAz6DHQXwCe/M/ZwAtxyH9ly/H3n3mh2DQ+rLzLNR/+Tns3e9jPgDgcRA78LApbBKetx4AZCugrkzD3v806wHcDvZfrsPe/3eMB/CvsL8B7cbjvqAuvGA7gPHHo/2X52AnMNx2AL9A6y+Xg2wMVplRpgM4FG2fAUCZVI+2X+aPACCtZ6Llb+dF7BAsvwn8Jdr9DvhrIIqXIMdB9IIfBIEY9Va0+p08jx3Dr8wGsBFtfhcnY8dwjdUA5kO2AorhSuwc1hkNYI3XE7WT8HPsIKx+IcTXQarJuRY7CKNfCXsTWnsnHdhJZH4gBq0yFYefh9beSdNm5CSG2/xa+DvQ1rvyb8hJ3Jt5+WiXaXgC7bwbs5Cj+LXFAM4XPz0zE5BNIndj8eFQzHEQlZmMHIbFx8PlDssQIvhG4Z2sz756tM7EjEFtBVSRX+OG8bK9ANouQvvuxW9w05hqL4DfonX3ZuhM1DCus7dN3BKhczJECXZgZE/uElg82mgyrsNtBVSFf0eN43fmArgM7TqWC0EPh7wg8VgkWmkiXkGrrsBBmHGcJbF2tNMk1F2NNl2Br2DmcaOxAKBbAVVnCWIemb8OmLcAsu+J5w3IiQF7GQtgPeg4CBfazw8/j2/KLB2t1ZmWDWjL1fh9+IHcbyyAQ9COq9L+VOh5LDZ2dOx08FZAtdgUeiAy7wByE8BmkV95PHL2mLADeUBq4WizjhyBFlyTKxpDzqNF7HwUtFk3lsG3AqrNoSEH8nGxZaPVOjHlD2i7DswNeHzkzySOjMxRANm/+hiCcO8DWw+TWzXarQsno9U68kqogYj8FSg/AZwCPA4iEQ8NCjOQZyS/Fom2W5tGqd94/XNLkC3DlmY+JCJfAcxCa03A9wPMo1X2wTi03pqcNhptNQkBNo//D9kVo/3WYtR/op0mot903wPZT3jFFS807qXHPrwKz6topQnpO8Gv/2XSfxOJu0jjmG8t6tD4/es8sNXrrwJLxL8U0fsaE57tQA8x1xzsce/QZ1aIL7fnJWb/jv/1M3LRRF/+Z3vYHLn7FSY9jp5eETjjDj/+T/KxMULXCzT2/xp6dsWgY70P/1/38lx0lwtMUbX1Tq6pP0ne/5N+fjZ3XmD9VvTYCkS79KYB4572tNI9V5h9LHpoxeJA0VPFR/zA1zp3X2FvDadvFIobBb8l+Iq/P4juusIl+OO3CsfD61pl9A/3+XHozktsPhE9rUKy/2oJ/w+I/vm3JzuvcS56VAVlxsbM28cM2uR3iTsucjF6UMXljIWZ9G/+L9+7Yu64Sgd6TEVmQ/pDZVpezr4RZC22X+cb6BkVnGvnp9I/8+UQJ6O/caEX+QGwbzasSvxtwSl/DLMn/huX+m/0eCzQ8cc/JbDf+qunQx2KF0Wj+BFgEJrO/Mh1TvYbZ3+1I9yyouho9GTsMGP/s2qdM7nmkVvD7oWo4gh2S/zh8SeXxJ8yc9TqVZ88PfhpeFEr/wgQnKaOB/+n/3Nb9h60dOk50Zq61c2vnXDfZccNhawlakZPg0DJ1YM3RJ4ob1+8J7JEyk7gIYGJ+EUw20RaN2AmYYjkdpsheSRCL4BgYQDGYQDGYQDGYQDGYQDGYQDGYQDGYQDGYQDGYQDGYQDGYQDGYQC2uZAB2GYFA7DNXAZgm7EMwDavMwDb/JkB2OZKBmCbRxiAbV5gAKYZGDEA0xzDAGzzHAMwzdlTGIBpXo8YgGn+lwGY5oLhDMA0R0QMwDJNpzEA0wyLGIBlGtYyANNcFjEAywz9EwMwTZ+IAVjm/0YxAMuM/kvEACzzRMQALPNoxAAsc0UbA7DMzeMjBmCYfUdEDMAwC7r5ZwDWOLEuYgCGub7n4YXoBZGQNNzXGjEAu/R9rfdxheg1kXAsGhAxALsMndUYMQC7vHdC/GnF6HWRILQvPypiAHY5cnoUMQCzNLy6OWIAdtn3+ShiAHaZNyViAHa5+64oYgB2+dQpEQOwy+h1rbX8M4ACc/rqmvoZQHFp3zjKwT8DKCpXzXfRzwAKSsOrc9z8M4BCct4DjvoZQCEZ9qKzfwZQPO552V0/Ayget9yRxD8DKBhDHD77YQDF5aK1yfQzgELRdOsNSf0zgALR8enE+hlAgdh0Tgr/DKAo9F2YRj8DKApTB6XzzwAKwQWJPvthAEXjR0+l9s8A8s+Mig99MAALnLg4g34GkHcabm3L5J8B5Jt9t2TTzwDyzbylWf0zgBxz98mZ9TOAHPN6XXb9DCC3jI7f8IMBGOG49SL6GUA+cXzogwEUlNtmS+lnADnE/aEPBlBE5j4iqN97AKV16HkVjRobfigLoBRFLECSe66R1e85gNL2K7AAOfaaJO3fawClnZdgAUIkfugDHEBp9zVYgAgHHyCv32cApc6LsIDstG9M/tAHNIBS16uwgKxsfcyLfn8BlLpfhgVkI91DH8AASj2vwwIycN7RvvT7CqDU+0IsIDWPj0/u1ZkVPla8PO5Ky9FzzCn3HOpRfxQ118svuRR/Kb4GpOEzX/Dq30cBpUqXYgGJeXhdloc+MAWUKl+KBSTkLWO86xcvoFTtUiwgCZkf+kAUUKp+KRbgzuQvh9EvWkCp1qVYgCvzBgfzL1dATf8swJFj/xpQv1gBDv5ZgBPXijz0EboAJ/8soDZDhR76CFyAo38WUItKp7wqL8DZPwuoSnumDT9wBSTwzwKqUOWUV9UFJPLPAipR9ZRXzQUk9M8C4ql+yqviAhL7ZwFxSD/0EayAFP5ZQC9qnvKqtoBU/llAD2qf8qq1gJT+WUBXXE55VVpAav8soBOnU151FpDBPwvYheCGH8ELyOSfBezA9ZRXjQVk9M8CpDf8CFxAZv8sIMEpr/oKEPBvvYAkp7yqK0DEv+kCkp3yqq0AIf+GC0h4yquyAsT8Wy3Ay4Yf4QoQ9G+zgOSnvKoqQNS/wQLSnPKqqQBh/+YKSHXKq6ICxP0bK8Dfhh/SrIzdP2B59n+4N39GWwmG0s9+4ol7DfDw/9/PRgU6SX3Kq5YC6D8LGU55VVIA/WchyymvKLrLof8MZDvlFUZXPfSfgYynvOLoFET/6Qm24YdHRfSfnsk3oS1ml0T/6RE45RXKdk30nxqRU16xNNd78b/Ny1al2pA55RWM/GklUaWPmgtGv78BNvzIByb+/2+QOuW1eFjwr+2hD01Y8C95ymvRMOBf5UMfWjDgX/iU12JhwL+CDT/0Unz/8qe8Foni+/dwymuBKLx/9Q99YCm8fz+nvBaGwvv/ED/7qUbh/ZdXoUesmuL7ZwDVMOCfAVTBgn8GUBkT/hlARWz4ZwCVMOKfAVTAin8GEI8Z/wwgFjv+GUAchvwzgBgs+WcAvTHlnwH0wpZ/BtATY/4ZQA+s+WcA3THnnwF0w55/BtAVg/4ZQBcs+mcAnXjxv+L3aMMMwBE//ldq31maAezCl3/te4szgJ3486+8AAawA5/+dRfAALbj17/qAhhA5N+/5gIYQAj/igtgAEH86y2AAYTxr7YA8wGE8q+1gDwF4H5X89z/UR8bQMf6V1qA+QA8FFDBv84CGIB4ARX9qyyAAUgXUMW/xgIYgHABVf0rLIAByBZQw7++AhiAaAE1/asrgAFIFuDgX1sBDECwACf/ygpgAHIFOPrXVQAD2EPWApz9qyqAAXSSrYAE/jUVwAC6kKWARP4VFcAAupK+gIT+9RTAALqRtoDE/tUUwAC6k66AFP61FMAAepCmgFT+lRTAAHqSvICU/nUUwAB6kbSA1P5VFMAAepOsgAz+NRTAAGJIUkAm/woKYABxuBeQ0T++AAYQi2sBmf3DC2AA8bgVIOAfXQADqIBLASL+wQUwgErULkDIP7YABlCRWgWI+YcWwAAqU70AQf/IAhhAFaoVIOofWAADqEblAoT94wpgAFWpVIC4f1gBDKA68QV48I8qgAHUIK4AL/6j5QygBpAAYgookn8GUJueBRTKPwNwoHsBxfLPAFzoWkDB/DMAJzoLKJp/BuDG7gIK558BOLKzgOL5ZwCubC+ggP4ZgDPN9UX0zwDc2bbNx78K9s8AwKD9MwAscP8MAArePwNAosA/AwCiwT8DwKHCPwOAocM/A0ChxD8DAKHFPwPAoMY/A4Cgxz8DQKDIPwMAoMk/AwiPKv8MIDi6/DOA0CjzzwACo80/AwiLOv8MICj6/DOAkCj0zwACotE/AwiHSv8MIBg6/TOAUCj1zwACodU/AwiDWv8MIAh6/TOAECj2zwACoNk/A/CPav8MwDu6/TMA3yj3zwA8o90/A/CLev8MwCv6/TMAn+TAPwPwSB78MwB/5MI/A/BGPvwzAF/kxD8D8ERe/DMAP+TGf0ED+Ps8H7ivdNIKtFfjAfghwVLdTp/XAANwJ8lac1MAA3An0WLzUgADcCfZanNSAANwJ+Fy81EAA3An6XpzUQADcCfxgvNQAANwJ/mKc1AAA3AnxZL1F8AA3EmzZvUFMAB3Ui1aewEMwJ10q1ZeAANwJ+WydRfAANxJu+6Vmv82+Fm0VQMBqH4N+DzaqoUANBdwL9qqiQCibWp/CkxDW7URgNrXgKaZaKtGAtBawFVoqWYCUPpT4H60VDsB6HwN6I+WaigAlQW8hJZqKQCFBQxsREs1FYC+Akpop8YC0PZOsOkStFNrASh7DfgFWqm9AFQV0DAdrdRgAJp+CjyNNmoyAD2vASvq0EZtBqDmNeAEtFCrASh5DViUq88AChWAiteABYPRPg0HoOA14Nj1aJ2mA4C/Btyds98ACxcA+DXg+DFomeYDgL4GjB2BdskAkK8BmzajVaajYAGgXgM6jkaLTEvRAoAUsOLZnP73jwoYQPgC+paWoi1moHgBhC3g6p++1oJ2mIkCBhCmgCEPLfjS7XeOaUULzMj/A39puYaob/MJAAAAAElFTkSuQmCC;" parent="00Jyg5K4TKUmTONpTBTu-1" vertex="1">
          <mxGeometry x="465.75" y="-622.5" width="29.25" height="29.25" as="geometry" />
        </mxCell>
        <mxCell id="TwaNV9ldxMqnKcr1kfX8-43" value="&lt;div align=&quot;center&quot;&gt;Agent Ephimeral Pod&lt;br&gt;&lt;span style=&quot;font-weight: normal;&quot;&gt;Ready to complete a task&lt;/span&gt;&lt;/div&gt;" style="text;html=1;strokeColor=none;fillColor=none;align=center;verticalAlign=middle;whiteSpace=wrap;rounded=0;fontStyle=1" parent="00Jyg5K4TKUmTONpTBTu-1" vertex="1">
          <mxGeometry x="505" y="-617.87" width="111" height="20" as="geometry" />
        </mxCell>
        <mxCell id="TwaNV9ldxMqnKcr1kfX8-29" value="" style="rounded=1;whiteSpace=wrap;html=1;fillColor=#d5e8d4;strokeColor=#82b366;" parent="00Jyg5K4TKUmTONpTBTu-1" vertex="1">
          <mxGeometry x="435.75" y="-753" width="188.5" height="69.25" as="geometry" />
        </mxCell>
        <mxCell id="00Jyg5K4TKUmTONpTBTu-78" value="" style="shape=image;aspect=fixed;image=data:image/png,iVBORw0KGgoAAAANSUhEUgAAAgAAAAIACAMAAADDpiTIAAAC9FBMVEUAAAAAAAAAAAAAAAAAAAAAAAAAAAAAAAAAAAAAAAAAAAAAAAAAAAAAAAAAAAAAAAAAAAAAAAAAAAAAAAAAAAAAAAAAAAAAAAAAAAAAAAAAAAAAAAAAAAAAAAAAAAAAAAAAAAAAAAAAAAAAAAAAAAAAAAAAAAAAAAAAAAAAAAAAAAAAAAAAAAAAAAAAAAAAAAAAAAAAAAAAAAAAAAAAAAAAAAAAAAAAAAAAAAAAAAAAAAAAAAAAAAAAAAAAAAAAAAAAAAAAAAAAAAAAAAAAAAAAAAAAAAAAAAAAAAAAAAAAAAAAAAAAAAAAAAAAAAAAAAAAAAAAAAAAAAAAAAAAAAAAAAAAAAAAAAAAAAAAAAAAAAAAAAAAAAAAAAAAAAAAAAAAAAAAAAAAAAAAAAAAAAAAAAAAAAAAAAAAAAAAAAAAAAAAAAAAAAAAAAAAAAAAAAAAAAAAAAAAAAAAAAAAAAAAAAAAAAAAAAAAAAAAAAAAAAAAAAAAAAAAAAAAAAAAAAAAAAAAAAAAAAAAAAAAAAAAAAAAAAAAAAAAAAAAAAAAAAAAAAAAAAAAAAAAAAAAAAAAAAAAAAAAAAAAAAAAAAAAAAAAAAAAAAAAAAAAAAAAAAAAAAAAAAAAAAAAAAAAAAAAAAAAAAAAAAAAAAAAAAAAAAAAAAAAAAAAAAAAAAAAAAAAAAAAAAAAAAAAAAAAAAAAAAAAAAAAAAAAAAAAAAAAAAAAAAAAAAAAAAAAAAAAAAAAAAAAAAAAAAAAAAAAAAAAAAAAAAAAAAAAAAAAAAAAAAAAAAAAAAAAAAAAAAAAAAAAAAAAAAAAAAAAAAAAAAAAAAAAAAAAAAAAAAAAAAAAAAAAAAAAAAAAAAAAAAAAAAAAAAAAAAAAAAAAAAAAAAAAAAAAAAAAAAAAAAAAAAAAAAAAAAAAAAAAAAAAAAAAAAAAAAAAAAAAAAAAAAAAAAAAAAAAAAAAAAAAAAAAAAAAAAAAAAAAAAAAAAAAAAAAAAAAAAB7FRQ7AAAA+3RSTlMAGk52nbvT6e7+9Mukbi0BFlzh3H8ZEGS//feVLpr1ZTOxqw4fqNEFfvYw0F4JFMMVkyUYHOB9EtXaA7YqjmxNoerJteZpBMcy+gjUkkTip1ob7W8pyoM0C9mYR+eqYAK+dQeJO/wM255P6LIh8sF7MfnSjz37UhEiRWKAn/GjcDiExFVyJ4zd7LpdDS+3dz5qxVMP5Sa0BtfIQN+IogrYvEiR1pcdbVtB7yNRvT/wz4U681aGh69Mud7rNXHCIMB5+EqgizyszWN0aCTGWXympVc2OSiQglhCRhepE3MsQzdrZrONra5UnOSKzJl4eoEelEu4m1/OK1Bn4/deOgwAABSDSURBVHja7Z37o1VlmcfXiYxzKDwoG/SQ4omLCAgql8GE8pKeALNUNLCgoycUES00jogMyoikCdKUoeIBNK/YxbJMxa5qmmYXR0odM5usyZpxmkab6bJ/Gbme29p7v2ut532/z1rP9/MHsN71fD7ss88+e71vFJFa1L2pz5v3ekvf+oZyvunX961v6793I3qc+WLAPm/bFy1OloGlQeih5obB++3fhPblgSFvH4CebC444MChaFW+qD8IPVz9NL8j7z/yqzJsOHrAuhkxstD63+BgvhOozKhDRqP9+GcgC6jEmLFoOUEYy58C8Rxq4L//DoahJ62ScSPRXsKxH3rYChl/GNpKQOoPR49bHSMGoqUE5Qj0vLUxoWAf+9Zi9ET0xHUxaTLaSGj+AT1yVUw5Eu0jOO9Ez1wTR01F6wAwDT11RbwLLQPBu9FT18PRRf/0P5Zj0GNXw8Rj0S4gHIeeuxYa34NWgeF49OC1cALaBIh+6MErYUI/tAkQDejJ66DlvWgRMNCj18EhaA0MAMr0GWgNDADJzBPRFhgAlPehJTAAKCeZ/AiQAexm8PvRDhgAlA+gFTAAKCejDTAAKKecijbAAJA0TkULQIM2AGYWev5w0AawnGblISAGEEvL6ejx40E7gPJB9PQVgHaAZLbhvwHtAS0ByJwz0MPXANoCkA+hZ68CtAUcHzb9N6A9oDXAGD8XPXodoD3AmIeevBLQHlB8BD14LaBFgJhUjx68FtAmMLSeiZ67GtAqMJyFHrse0CogTBuCHrse0C4QtI1FT10RaBkIPooeuibQMgDMPxs9dE2gbYTnnAXomasCrSM856JHrgu0juAsRE9cGWgfoTn8PPTElYEWEppF6IFrAy0kMAeh560OtJGwnH8Bet7qQCsJSuvH0OPWB9pJUD6OnrZC0E5CsvhC9LQVgpYSkLaL0MPWCNpKQD6BnrVK0FbCsaSI50BnB60lGIMVHQfUvuA973r3xUtOO3zpnCgaN/6SxcsuXf6Ph61gAD65DG19F+8fefnKtvglnr/wn64I/rgi2ksoVqHFb+fCva5cXWOdc5Z98ioGIE/d1Wj55aZPXbPGbbFrS+9kALI0XovWP3DdpCTr/fQxQxmAIP8M1v+Zzx6VdMnX9fkcA5Bifaj/TvFcvzLVqm+49EYGIELLBqT+DTelXnjrqg4GIEAJqP+MhZmWPq6P708H0HIC0IzbCmjGxplZVz9xEwPIxuabYf5vWS9xA5/3+sEAWo9/3o7SP2RWo8wdbL6VAaRnGWoroNvWyt3Exf4+x0L78c2UML9N9+b2cZK3cYe3PU3RgnwzEqO//U7h+2h7MwNIw10Y/1dvkb+V/n6eaUUb8ssdd0P8D/yCj5v5opdtLdCKvNL6JYj/m5P83ScBX76HASTjcoj/sQN83c9iD78MoB35BLMV0Fem+LujZvnXALQkj4yCHAdx1USf97RS/Nk2tCWPfBXhf66X93+dbJF+uAVtyR/3IrYC+prgx3/xSO9xi9bkjTkBv1e3h4av+7+x+xiAEwcC/Je/EeDGGu9nAA48gPD/YOJv/qVh8FYGUBPIcRAPef0FoJNvSr4RRJvyhOzLpCNfDHV332IANbgU4f/cYLfX+m0GUJXvIJ6zPH54uBtcLfcZJ9qVD1q/C/Bf3ifkLX6PAVShD8L/t4W+AOhGy5EMoCIHPAzwf7b3jwC78wgDqETbwQD/5UdD3+aDDKAC30f4n+H5b0C9WSu04w1alziPQY6DODD8jT7OAOIY3oHw3z4i/J02M4A4HkX4L49E3KrMuwC0MGEuhvgvz0fc6xYG0IsBfSH+f4C529sYQA8ar4f4Lz+Bud0nGUAPfojxP2Qw5nbHS3zihXYmyVP9MAEMQ92wxG+CaGmCtPwI47+cbReYDPyYAXTlJyD//dqyrz0dwwV+BqCtyTEddRzEItw9C7zpRWsTY5zIL0VpOAF30wKHoKG9ieFzH53qXIK76QkMYDcnobYCKm9F3nb2DXDQ4oQAHgfxU+R9Z98BB21OiKdh/sv9kfedfRdstDkZ/gXnv/wM8sa3MYDt1J2K898kuh1cUtZkfuuDdidB41Scf+x7wCiazACiqD/Qf3kq9t4zfxSElifAz6DHQXwCe/M/ZwAtxyH9ly/H3n3mh2DQ+rLzLNR/+Tns3e9jPgDgcRA78LApbBKetx4AZCugrkzD3v806wHcDvZfrsPe/3eMB/CvsL8B7cbjvqAuvGA7gPHHo/2X52AnMNx2AL9A6y+Xg2wMVplRpgM4FG2fAUCZVI+2X+aPACCtZ6Llb+dF7BAsvwn8Jdr9DvhrIIqXIMdB9IIfBIEY9Va0+p08jx3Dr8wGsBFtfhcnY8dwjdUA5kO2AorhSuwc1hkNYI3XE7WT8HPsIKx+IcTXQarJuRY7CKNfCXsTWnsnHdhJZH4gBq0yFYefh9beSdNm5CSG2/xa+DvQ1rvyb8hJ3Jt5+WiXaXgC7bwbs5Cj+LXFAM4XPz0zE5BNIndj8eFQzHEQlZmMHIbFx8PlDssQIvhG4Z2sz756tM7EjEFtBVSRX+OG8bK9ANouQvvuxW9w05hqL4DfonX3ZuhM1DCus7dN3BKhczJECXZgZE/uElg82mgyrsNtBVSFf0eN43fmArgM7TqWC0EPh7wg8VgkWmkiXkGrrsBBmHGcJbF2tNMk1F2NNl2Br2DmcaOxAKBbAVVnCWIemb8OmLcAsu+J5w3IiQF7GQtgPeg4CBfazw8/j2/KLB2t1ZmWDWjL1fh9+IHcbyyAQ9COq9L+VOh5LDZ2dOx08FZAtdgUeiAy7wByE8BmkV95PHL2mLADeUBq4WizjhyBFlyTKxpDzqNF7HwUtFk3lsG3AqrNoSEH8nGxZaPVOjHlD2i7DswNeHzkzySOjMxRANm/+hiCcO8DWw+TWzXarQsno9U68kqogYj8FSg/AZwCPA4iEQ8NCjOQZyS/Fom2W5tGqd94/XNLkC3DlmY+JCJfAcxCa03A9wPMo1X2wTi03pqcNhptNQkBNo//D9kVo/3WYtR/op0mot903wPZT3jFFS807qXHPrwKz6topQnpO8Gv/2XSfxOJu0jjmG8t6tD4/es8sNXrrwJLxL8U0fsaE57tQA8x1xzsce/QZ1aIL7fnJWb/jv/1M3LRRF/+Z3vYHLn7FSY9jp5eETjjDj/+T/KxMULXCzT2/xp6dsWgY70P/1/38lx0lwtMUbX1Tq6pP0ne/5N+fjZ3XmD9VvTYCkS79KYB4572tNI9V5h9LHpoxeJA0VPFR/zA1zp3X2FvDadvFIobBb8l+Iq/P4juusIl+OO3CsfD61pl9A/3+XHozktsPhE9rUKy/2oJ/w+I/vm3JzuvcS56VAVlxsbM28cM2uR3iTsucjF6UMXljIWZ9G/+L9+7Yu64Sgd6TEVmQ/pDZVpezr4RZC22X+cb6BkVnGvnp9I/8+UQJ6O/caEX+QGwbzasSvxtwSl/DLMn/huX+m/0eCzQ8cc/JbDf+qunQx2KF0Wj+BFgEJrO/Mh1TvYbZ3+1I9yyouho9GTsMGP/s2qdM7nmkVvD7oWo4gh2S/zh8SeXxJ8yc9TqVZ88PfhpeFEr/wgQnKaOB/+n/3Nb9h60dOk50Zq61c2vnXDfZccNhawlakZPg0DJ1YM3RJ4ob1+8J7JEyk7gIYGJ+EUw20RaN2AmYYjkdpsheSRCL4BgYQDGYQDGYQDGYQDGYQDGYQDGYQDGYQDGYQDGYQDGYQDGYQDGYQC2uZAB2GYFA7DNXAZgm7EMwDavMwDb/JkB2OZKBmCbRxiAbV5gAKYZGDEA0xzDAGzzHAMwzdlTGIBpXo8YgGn+lwGY5oLhDMA0R0QMwDJNpzEA0wyLGIBlGtYyANNcFjEAywz9EwMwTZ+IAVjm/0YxAMuM/kvEACzzRMQALPNoxAAsc0UbA7DMzeMjBmCYfUdEDMAwC7r5ZwDWOLEuYgCGub7n4YXoBZGQNNzXGjEAu/R9rfdxheg1kXAsGhAxALsMndUYMQC7vHdC/GnF6HWRILQvPypiAHY5cnoUMQCzNLy6OWIAdtn3+ShiAHaZNyViAHa5+64oYgB2+dQpEQOwy+h1rbX8M4ACc/rqmvoZQHFp3zjKwT8DKCpXzXfRzwAKSsOrc9z8M4BCct4DjvoZQCEZ9qKzfwZQPO552V0/Ayget9yRxD8DKBhDHD77YQDF5aK1yfQzgELRdOsNSf0zgALR8enE+hlAgdh0Tgr/DKAo9F2YRj8DKApTB6XzzwAKwQWJPvthAEXjR0+l9s8A8s+Mig99MAALnLg4g34GkHcabm3L5J8B5Jt9t2TTzwDyzbylWf0zgBxz98mZ9TOAHPN6XXb9DCC3jI7f8IMBGOG49SL6GUA+cXzogwEUlNtmS+lnADnE/aEPBlBE5j4iqN97AKV16HkVjRobfigLoBRFLECSe66R1e85gNL2K7AAOfaaJO3fawClnZdgAUIkfugDHEBp9zVYgAgHHyCv32cApc6LsIDstG9M/tAHNIBS16uwgKxsfcyLfn8BlLpfhgVkI91DH8AASj2vwwIycN7RvvT7CqDU+0IsIDWPj0/u1ZkVPla8PO5Ky9FzzCn3HOpRfxQ118svuRR/Kb4GpOEzX/Dq30cBpUqXYgGJeXhdloc+MAWUKl+KBSTkLWO86xcvoFTtUiwgCZkf+kAUUKp+KRbgzuQvh9EvWkCp1qVYgCvzBgfzL1dATf8swJFj/xpQv1gBDv5ZgBPXijz0EboAJ/8soDZDhR76CFyAo38WUItKp7wqL8DZPwuoSnumDT9wBSTwzwKqUOWUV9UFJPLPAipR9ZRXzQUk9M8C4ql+yqviAhL7ZwFxSD/0EayAFP5ZQC9qnvKqtoBU/llAD2qf8qq1gJT+WUBXXE55VVpAav8soBOnU151FpDBPwvYheCGH8ELyOSfBezA9ZRXjQVk9M8CpDf8CFxAZv8sIMEpr/oKEPBvvYAkp7yqK0DEv+kCkp3yqq0AIf+GC0h4yquyAsT8Wy3Ay4Yf4QoQ9G+zgOSnvKoqQNS/wQLSnPKqqQBh/+YKSHXKq6ICxP0bK8Dfhh/SrIzdP2B59n+4N39GWwmG0s9+4ol7DfDw/9/PRgU6SX3Kq5YC6D8LGU55VVIA/WchyymvKLrLof8MZDvlFUZXPfSfgYynvOLoFET/6Qm24YdHRfSfnsk3oS1ml0T/6RE45RXKdk30nxqRU16xNNd78b/Ny1al2pA55RWM/GklUaWPmgtGv78BNvzIByb+/2+QOuW1eFjwr+2hD01Y8C95ymvRMOBf5UMfWjDgX/iU12JhwL+CDT/0Unz/8qe8Foni+/dwymuBKLx/9Q99YCm8fz+nvBaGwvv/ED/7qUbh/ZdXoUesmuL7ZwDVMOCfAVTBgn8GUBkT/hlARWz4ZwCVMOKfAVTAin8GEI8Z/wwgFjv+GUAchvwzgBgs+WcAvTHlnwH0wpZ/BtATY/4ZQA+s+WcA3THnnwF0w55/BtAVg/4ZQBcs+mcAnXjxv+L3aMMMwBE//ldq31maAezCl3/te4szgJ3486+8AAawA5/+dRfAALbj17/qAhhA5N+/5gIYQAj/igtgAEH86y2AAYTxr7YA8wGE8q+1gDwF4H5X89z/UR8bQMf6V1qA+QA8FFDBv84CGIB4ARX9qyyAAUgXUMW/xgIYgHABVf0rLIAByBZQw7++AhiAaAE1/asrgAFIFuDgX1sBDECwACf/ygpgAHIFOPrXVQAD2EPWApz9qyqAAXSSrYAE/jUVwAC6kKWARP4VFcAAupK+gIT+9RTAALqRtoDE/tUUwAC6k66AFP61FMAAepCmgFT+lRTAAHqSvICU/nUUwAB6kbSA1P5VFMAAepOsgAz+NRTAAGJIUkAm/woKYABxuBeQ0T++AAYQi2sBmf3DC2AA8bgVIOAfXQADqIBLASL+wQUwgErULkDIP7YABlCRWgWI+YcWwAAqU70AQf/IAhhAFaoVIOofWAADqEblAoT94wpgAFWpVIC4f1gBDKA68QV48I8qgAHUIK4AL/6j5QygBpAAYgookn8GUJueBRTKPwNwoHsBxfLPAFzoWkDB/DMAJzoLKJp/BuDG7gIK558BOLKzgOL5ZwCubC+ggP4ZgDPN9UX0zwDc2bbNx78K9s8AwKD9MwAscP8MAArePwNAosA/AwCiwT8DwKHCPwOAocM/A0ChxD8DAKHFPwPAoMY/A4Cgxz8DQKDIPwMAoMk/AwiPKv8MIDi6/DOA0CjzzwACo80/AwiLOv8MICj6/DOAkCj0zwACotE/AwiHSv8MIBg6/TOAUCj1zwACodU/AwiDWv8MIAh6/TOAECj2zwACoNk/A/CPav8MwDu6/TMA3yj3zwA8o90/A/CLev8MwCv6/TMAn+TAPwPwSB78MwB/5MI/A/BGPvwzAF/kxD8D8ERe/DMAP+TGf0ED+Ps8H7ivdNIKtFfjAfghwVLdTp/XAANwJ8lac1MAA3An0WLzUgADcCfZanNSAANwJ+Fy81EAA3An6XpzUQADcCfxgvNQAANwJ/mKc1AAA3AnxZL1F8AA3EmzZvUFMAB3Ui1aewEMwJ10q1ZeAANwJ+WydRfAANxJu+6Vmv82+Fm0VQMBqH4N+DzaqoUANBdwL9qqiQCibWp/CkxDW7URgNrXgKaZaKtGAtBawFVoqWYCUPpT4H60VDsB6HwN6I+WaigAlQW8hJZqKQCFBQxsREs1FYC+Akpop8YC0PZOsOkStFNrASh7DfgFWqm9AFQV0DAdrdRgAJp+CjyNNmoyAD2vASvq0EZtBqDmNeAEtFCrASh5DViUq88AChWAiteABYPRPg0HoOA14Nj1aJ2mA4C/Btyds98ACxcA+DXg+DFomeYDgL4GjB2BdskAkK8BmzajVaajYAGgXgM6jkaLTEvRAoAUsOLZnP73jwoYQPgC+paWoi1moHgBhC3g6p++1oJ2mIkCBhCmgCEPLfjS7XeOaUULzMj/A39puYaob/MJAAAAAElFTkSuQmCC;" parent="00Jyg5K4TKUmTONpTBTu-1" vertex="1">
          <mxGeometry x="465.75" y="-730.38" width="29.25" height="29.25" as="geometry" />
        </mxCell>
        <mxCell id="TwaNV9ldxMqnKcr1kfX8-30" value="&lt;div align=&quot;center&quot;&gt;Agent Ephimeral Jod&lt;br&gt;&lt;span style=&quot;font-weight: normal;&quot;&gt;Ready to complete a task&lt;/span&gt;&lt;/div&gt;" style="text;html=1;strokeColor=none;fillColor=none;align=center;verticalAlign=middle;whiteSpace=wrap;rounded=0;fontStyle=1" parent="00Jyg5K4TKUmTONpTBTu-1" vertex="1">
          <mxGeometry x="505" y="-725.75" width="111" height="20" as="geometry" />
        </mxCell>
        <mxCell id="TwaNV9ldxMqnKcr1kfX8-49" value="" style="sketch=0;html=1;dashed=0;whitespace=wrap;fillColor=#2875E2;strokeColor=#ffffff;points=[[0.005,0.63,0],[0.1,0.2,0],[0.9,0.2,0],[0.5,0,0],[0.995,0.63,0],[0.72,0.99,0],[0.5,1,0],[0.28,0.99,0]];verticalLabelPosition=bottom;align=center;verticalAlign=top;shape=mxgraph.kubernetes.icon;prIcon=job" parent="00Jyg5K4TKUmTONpTBTu-1" vertex="1">
          <mxGeometry x="420.75" y="-714.1800000000001" width="50" height="48" as="geometry" />
        </mxCell>
        <mxCell id="TwaNV9ldxMqnKcr1kfX8-50" value="" style="sketch=0;html=1;dashed=0;whitespace=wrap;fillColor=#2875E2;strokeColor=#ffffff;points=[[0.005,0.63,0],[0.1,0.2,0],[0.9,0.2,0],[0.5,0,0],[0.995,0.63,0],[0.72,0.99,0],[0.5,1,0],[0.28,0.99,0]];verticalLabelPosition=bottom;align=center;verticalAlign=top;shape=mxgraph.kubernetes.icon;prIcon=job" parent="00Jyg5K4TKUmTONpTBTu-1" vertex="1">
          <mxGeometry x="420.75" y="-604" width="50" height="48" as="geometry" />
        </mxCell>
      </root>
    </mxGraphModel>
  </diagram>
</mxfile>
